<?xml version="1.0" encoding="utf-8"?>
<!-- Generator: Adobe Illustrator 15.0.2, SVG Export Plug-In . SVG Version: 6.00 Build 0)  -->
<!DOCTYPE svg PUBLIC "-//W3C//DTD SVG 1.1//EN" "http://www.w3.org/Graphics/SVG/1.1/DTD/svg11.dtd">
<svg version="1.1" id="Layer_1" xmlns="http://www.w3.org/2000/svg" xmlns:xlink="http://www.w3.org/1999/xlink" x="0px" y="0px"
	 width="1474px" height="387px" viewBox="0 0 1474 387" enable-background="new 0 0 1474 387" xml:space="preserve">
<g>
	<path fill="#FFFFFF" d="M618.988-1191.122h-8.734l-31.809-49.318h-0.325l0.203,3.291c0.325,4.929,0.487,9.208,0.487,12.837v33.19
		h-6.906v-59.393h8.653l1.828,2.884l19.499,30.144l10.359,16.127h0.325c-0.055-0.649-0.163-2.972-0.325-6.967
		c-0.162-3.994-0.244-6.885-0.244-8.673v-33.515h6.988V-1191.122z"/>
	<path fill="#FFFFFF" d="M653.071-1190.31c-6.689,0-11.937-2.025-15.741-6.074c-3.806-4.049-5.708-9.621-5.708-16.717
		c0-7.149,1.773-12.844,5.321-17.082s8.342-6.357,14.381-6.357c5.606,0,10.075,1.808,13.406,5.423
		c3.331,3.616,4.997,8.511,4.997,14.687v4.428h-30.55c0.136,5.064,1.422,8.91,3.859,11.537s5.891,3.94,10.359,3.94
		c2.383,0,4.645-0.21,6.784-0.63s4.645-1.238,7.516-2.457v6.418c-2.465,1.057-4.78,1.801-6.946,2.234
		C658.583-1190.526,656.023-1190.31,653.071-1190.31z M651.243-1230.568c-3.493,0-6.256,1.124-8.287,3.372s-3.236,5.375-3.615,9.384
		h22.709c-0.055-4.171-1.016-7.339-2.885-9.506C657.297-1229.485,654.656-1230.568,651.243-1230.568z"/>
	<path fill="#FFFFFF" d="M719.776-1213.507c0,7.285-1.842,12.973-5.524,17.062c-3.684,4.09-8.775,6.135-15.275,6.135
		c-4.035,0-7.61-0.941-10.725-2.824c-3.114-1.882-5.512-4.584-7.19-8.104c-1.679-3.521-2.519-7.611-2.519-12.27
		c0-7.258,1.814-12.911,5.443-16.96s8.721-6.073,15.275-6.073c6.283,0,11.272,2.064,14.97,6.195
		C717.928-1226.215,719.776-1220.603,719.776-1213.507z M686.099-1213.507c0,5.606,1.104,9.865,3.312,12.777
		c2.207,2.91,5.464,4.367,9.77,4.367c4.252,0,7.488-1.457,9.709-4.367c2.222-2.912,3.332-7.171,3.332-12.777
		c0-5.605-1.117-9.824-3.352-12.654s-5.505-4.245-9.811-4.245C690.419-1230.406,686.099-1224.772,686.099-1213.507z"/>
	<path fill="#FFFFFF" d="M760.4-1203.432c0,4.171-1.557,7.4-4.672,9.688c-3.114,2.289-7.488,3.434-13.121,3.434
		c-5.877,0-10.549-0.935-14.016-2.803v-6.663c4.902,2.384,9.628,3.575,14.178,3.575c3.684,0,6.365-0.596,8.044-1.787
		c1.679-1.192,2.519-2.79,2.519-4.795c0-1.76-0.806-3.249-2.417-4.468s-4.476-2.614-8.592-4.185
		c-4.198-1.625-7.15-3.013-8.856-4.164c-1.706-1.15-2.959-2.444-3.758-3.879c-0.799-1.436-1.198-3.183-1.198-5.241
		c0-3.656,1.489-6.54,4.469-8.653c2.979-2.111,7.068-3.168,12.269-3.168c5.064,0,9.804,1.002,14.219,3.006l-2.479,5.81
		c-4.522-1.896-8.599-2.844-12.228-2.844c-3.034,0-5.336,0.48-6.906,1.442c-1.571,0.961-2.356,2.281-2.356,3.961
		c0,1.625,0.677,2.972,2.031,4.041c1.354,1.07,4.51,2.553,9.465,4.449c3.711,1.381,6.453,2.668,8.227,3.859
		c1.774,1.191,3.081,2.531,3.921,4.021C759.98-1207.304,760.4-1205.517,760.4-1203.432z"/>
	<path fill="#FFFFFF" d="M830.6-1191.122h-41.519v-8.734l14.909-15.072c4.415-4.522,7.299-7.657,8.653-9.404
		c1.354-1.746,2.329-3.365,2.925-4.854s0.894-3.033,0.894-4.631c0-2.384-0.656-4.157-1.97-5.321
		c-1.313-1.165-3.067-1.748-5.262-1.748c-2.302,0-4.536,0.529-6.702,1.585c-2.167,1.056-4.429,2.56-6.784,4.509l-6.825-8.084
		c2.925-2.491,5.349-4.252,7.271-5.281s4.022-1.82,6.297-2.376c2.275-0.556,4.821-0.833,7.638-0.833c3.71,0,6.987,0.678,9.831,2.031
		s5.051,3.25,6.621,5.688c1.571,2.438,2.356,5.227,2.356,8.369c0,2.734-0.48,5.301-1.442,7.697c-0.961,2.396-2.45,4.855-4.468,7.373
		c-2.019,2.52-5.573,6.107-10.664,10.766l-7.638,7.191v0.568H830.6V-1191.122z"/>
	<path fill="#FFFFFF" d="M838.074-1196.932c0-2.274,0.609-3.995,1.828-5.159s2.992-1.747,5.321-1.747
		c2.248,0,3.988,0.596,5.221,1.788c1.232,1.191,1.849,2.897,1.849,5.118c0,2.14-0.623,3.825-1.869,5.058s-2.979,1.849-5.2,1.849
		c-2.274,0-4.035-0.603-5.28-1.808C838.697-1193.038,838.074-1194.737,838.074-1196.932z"/>
	<path fill="#FFFFFF" d="M891.414-1191.122h-12.553v-34.368l0.121-5.647l0.203-6.174c-2.085,2.085-3.534,3.453-4.347,4.103
		l-6.825,5.484l-6.053-7.556l19.135-15.234h10.318V-1191.122z"/>
</g>
<g>
	<polygon fill="#F44711" points="1474,0 0,0 0,138.859 1474,100.387 	"/>
	<polygon fill="#4D4D4D" points="1474,38.266 0,109.714 0,234 1474,234 	"/>
	<polygon fill="#CCCC29" points="1474,80.998 0,121.695 0,282 1474,282 	"/>
	<polygon fill="#1284B3" points="1474,231.288 0,181.791 0,375 1474,375 	"/>
	<g>
		<g>
			
				<rect x="331.932" y="162.205" transform="matrix(0.9462 -0.3236 0.3236 0.9462 -62.3011 122.3933)" fill="#4D4D4D" width="9.999" height="172.709"/>
			
				<rect x="302.205" y="96.833" transform="matrix(0.9462 -0.3236 0.3236 0.9462 -33.0836 115.9677)" fill="#00B5FF" width="60" height="121.285"/>
			<polygon fill="#1284B3" points="351.99,88.734 298.864,62.685 272.814,115.809 			"/>
		</g>
		<g>
			
				<rect x="421.919" y="170.275" transform="matrix(0.9425 0.3341 -0.3341 0.9425 107.8746 -128.2877)" fill="#4D4D4D" width="10" height="158.429"/>
			<g>
				
					<rect x="409.381" y="123.29" transform="matrix(0.9425 0.3341 -0.3341 0.9425 85.1069 -134.2628)" fill="#E0E07F" width="46.999" height="114"/>
				<polygon fill="#ADA53E" points="481.854,139.297 461.874,97.374 419.951,117.354 				"/>
			</g>
		</g>
		<g>
			
				<rect x="277.038" y="182.194" transform="matrix(0.6838 -0.7297 0.7297 0.6838 -96.0874 286.0874)" fill="#4D4D4D" width="10" height="143.426"/>
			<g>
				
					<rect x="215.178" y="180.572" transform="matrix(0.6838 -0.7297 0.7297 0.6838 -90.1309 241.1715)" fill="#E0E07F" width="36" height="87.999"/>
				<polygon fill="#ADA53E" points="217.648,178.08 181.832,179.245 182.997,215.062 				"/>
			</g>
		</g>
	</g>
	<polygon fill="#00B5FF" points="1474,260.822 0,296.699 0,387 1474,387 	"/>
	<g>
		<path fill="#FFFFFF" d="M1186.234,300.998h-94.729v-19.929l34.017-34.388c10.075-10.32,16.655-17.473,19.743-21.459
			c3.09-3.984,5.314-7.677,6.674-11.076c1.359-3.398,2.041-6.92,2.041-10.566c0-5.438-1.499-9.484-4.496-12.143
			c-2.998-2.656-6.999-3.984-12.004-3.984c-5.252,0-10.35,1.205-15.293,3.613c-4.945,2.41-10.104,5.84-15.48,10.29l-15.57-18.446
			c6.672-5.686,12.203-9.701,16.59-12.049s9.178-4.156,14.367-5.423c5.19-1.267,11-1.899,17.427-1.899
			c8.466,0,15.941,1.543,22.429,4.633c6.49,3.091,11.525,7.416,15.107,12.979c3.586,5.561,5.378,11.925,5.378,19.093
			c0,6.241-1.097,12.097-3.29,17.565s-5.592,11.076-10.195,16.822c-4.604,5.748-12.715,13.936-24.332,24.564l-17.426,16.405v1.298
			h59.043V300.998z"/>
		<path fill="#FFFFFF" d="M1203.289,287.743c0-5.191,1.392-9.114,4.172-11.772c2.781-2.656,6.828-3.985,12.143-3.985
			c5.129,0,9.1,1.36,11.911,4.078c2.812,2.72,4.218,6.612,4.218,11.68c0,4.882-1.422,8.728-4.266,11.54
			c-2.842,2.811-6.798,4.217-11.863,4.217c-5.191,0-9.207-1.375-12.049-4.125C1204.711,296.626,1203.289,292.748,1203.289,287.743z"
			/>
		<path fill="#FFFFFF" d="M1324.991,300.998h-28.642v-78.416l0.279-12.884l0.462-14.089c-4.756,4.758-8.063,7.879-9.917,9.361
			l-15.571,12.514l-13.812-17.241l43.657-34.759h23.543V300.998z"/>
	</g>
</g>
</svg>
