<?xml version="1.0" encoding="utf-8"?>
<!-- Generator: Adobe Illustrator 16.0.4, SVG Export Plug-In . SVG Version: 6.00 Build 0)  -->
<!DOCTYPE svg PUBLIC "-//W3C//DTD SVG 1.1//EN" "http://www.w3.org/Graphics/SVG/1.1/DTD/svg11.dtd">
<svg version="1.1" id="Ebene_1" xmlns="http://www.w3.org/2000/svg" xmlns:xlink="http://www.w3.org/1999/xlink" x="0px" y="0px"
	 width="86.115px" height="26.051px" viewBox="0 0 86.115 26.051" enable-background="new 0 0 86.115 26.051" xml:space="preserve">
<g>
	<path fill="#FFFFFF" d="M22.799,25.699h-6.926L4.693,6.258H4.535c0.223,3.434,0.334,5.883,0.334,7.348v12.094H0V0h6.873
		l11.162,19.248h0.123c-0.176-3.34-0.264-5.701-0.264-7.084V0h4.904V25.699z"/>
	<path fill="#FFFFFF" d="M37.74,26.051c-3.164,0-5.637-0.873-7.418-2.619s-2.672-4.219-2.672-7.418c0-3.293,0.823-5.839,2.47-7.638
		s3.923-2.698,6.829-2.698c2.777,0,4.939,0.791,6.486,2.373s2.32,3.768,2.32,6.557v2.602H33.082c0.059,1.523,0.51,2.713,1.354,3.568
		s2.027,1.283,3.551,1.283c1.184,0,2.303-0.123,3.357-0.369s2.156-0.639,3.305-1.178v4.148c-0.938,0.469-1.939,0.817-3.006,1.046
		S39.275,26.051,37.74,26.051z M36.984,9.492c-1.137,0-2.027,0.36-2.672,1.081s-1.014,1.743-1.107,3.067h7.523
		c-0.023-1.324-0.369-2.347-1.037-3.067S38.121,9.492,36.984,9.492z"/>
	<path fill="#FFFFFF" d="M67.975,15.838c0,3.199-0.844,5.701-2.531,7.506s-4.037,2.707-7.049,2.707
		c-1.887,0-3.551-0.413-4.992-1.239s-2.549-2.013-3.322-3.56s-1.16-3.352-1.16-5.414c0-3.211,0.838-5.707,2.514-7.488
		s4.031-2.672,7.066-2.672c1.887,0,3.551,0.41,4.992,1.23s2.549,1.998,3.322,3.533S67.975,13.775,67.975,15.838z M54.387,15.838
		c0,1.945,0.319,3.416,0.958,4.412s1.679,1.494,3.12,1.494c1.43,0,2.458-0.495,3.085-1.485s0.94-2.464,0.94-4.421
		c0-1.945-0.316-3.404-0.949-4.377s-1.67-1.459-3.111-1.459c-1.43,0-2.461,0.483-3.094,1.45S54.387,13.881,54.387,15.838z"/>
	<path fill="#FFFFFF" d="M86.115,19.863c0,2.016-0.7,3.551-2.101,4.605s-3.495,1.582-6.284,1.582c-1.43,0-2.648-0.097-3.656-0.29
		s-1.951-0.478-2.83-0.853v-4.43c0.996,0.469,2.118,0.861,3.366,1.178s2.347,0.475,3.296,0.475c1.945,0,2.918-0.562,2.918-1.688
		c0-0.422-0.129-0.765-0.387-1.028s-0.703-0.562-1.336-0.896s-1.477-0.724-2.531-1.169c-1.512-0.633-2.622-1.219-3.331-1.758
		s-1.225-1.157-1.547-1.854s-0.483-1.556-0.483-2.575c0-1.746,0.677-3.097,2.03-4.052s3.272-1.433,5.757-1.433
		c2.367,0,4.67,0.516,6.908,1.547l-1.617,3.867c-0.984-0.422-1.904-0.768-2.76-1.037S79.799,9.65,78.908,9.65
		c-1.582,0-2.373,0.428-2.373,1.283c0,0.48,0.255,0.896,0.765,1.248s1.626,0.873,3.349,1.564c1.535,0.621,2.66,1.201,3.375,1.74
		s1.242,1.16,1.582,1.863S86.115,18.891,86.115,19.863z"/>
</g>
</svg>
