<?xml version="1.0" encoding="utf-8"?>
<!-- Generator: Adobe Illustrator 16.0.4, SVG Export Plug-In . SVG Version: 6.00 Build 0)  -->
<!DOCTYPE svg PUBLIC "-//W3C//DTD SVG 1.1//EN" "http://www.w3.org/Graphics/SVG/1.1/DTD/svg11.dtd">
<svg version="1.1" id="Layer_1" xmlns="http://www.w3.org/2000/svg" xmlns:xlink="http://www.w3.org/1999/xlink" x="0px" y="0px"
	 width="1474px" height="614px" viewBox="0 -227 1474 614" enable-background="new 0 -227 1474 614" xml:space="preserve">
<g>
	<polygon fill="#F44711" points="1474,-113.5 0,-113.5 0,25.36 1474,-13.11 	"/>
	<rect y="-227" fill="#F44711" width="1474" height="113.5"/>
	<polygon fill="#4D4D4D" points="1474,-75.23 0,-3.79 0,120.5 1474,120.5 	"/>
	<polygon fill="#CCCC29" points="1474,-32.5 0,8.19 0,168.5 1474,168.5 	"/>
	<g>
		<g>
			<path fill="#E0E07F" d="M928.81,163.94c0,0-42.44-17.56-72.39-29.22c-29.55-11.5-72.01-30.16-72.01-30.16s8.48-15.62,25.02-55.83
				c16.53-40.23,27.03-70.77,27.03-70.77l144.4,59.35c0,0-15.51,32.72-30.07,68.1C936.24,140.85,928.81,163.94,928.81,163.94z"/>
			<polygon fill="#C1BD34" points="978.01,59.55 824.29,-3.65 830.7,-24.42 988.03,40.29 			"/>
			<g>
				<path fill="#ADA53E" d="M975.39-9.62c-2.01-8.14-11.46-10.81-25.55-7.32c-14.12,3.48-36.23,23.69-37.53,24.9
					c-5.36,5.02,30.69,8.03,44.8,4.54C971.21,8.99,977.4-1.51,975.39-9.62z M950.56,6.74c-11.51,2.77-39.71,4.8-34.97,2.18
					c1.14-0.62,20.62-11.18,32.15-13.94c11.47-2.77,18.65-2.52,19.42,0.74C967.97-1.02,962.05,3.97,950.56,6.74z"/>
				<path fill="#ADA53E" d="M904.54-29.76c-5.7-11.15-15.73-14.22-22.16-10.94c-6.41,3.3-6.79,11.71-1.07,22.87
					c5.72,11.12,27.02,25.67,28.3,26.53C914.88,12.22,910.26-18.63,904.54-29.76z M908.85,7.03c-0.78-0.74-13.67-13.28-18.52-21.56
					c-4.85-8.28-6.27-13.94-3.84-15.37c2.44-1.42,7.81,1.93,12.65,10.21C903.98-11.43,912.03,10.08,908.85,7.03z"/>
				<polygon fill="#ADA53E" points="853.73,139.17 908,7.17 915.58,10.25 861.31,142.3 				"/>
			</g>
		</g>
	</g>
	<polygon fill="#1284B3" points="1474,117.79 0,68.29 0,261.5 1474,261.5 	"/>
	<g>
		<g>
			<path fill="#33C4FF" d="M417.08,181.77c0,0-55.21,22.89-93.49,39.72c-37.77,16.6-94.01,38.51-94.01,38.51
				s-6.57-22.18-28.35-74.39c-21.81-52.22-40.24-89.98-40.24-89.98l187.47-78.25c0,0,15.83,44.38,35,90.33
				C402.67,153.69,417.08,181.77,417.08,181.77z"/>
			<polygon fill="#00B5FF" points="366.3,40.46 166.71,123.73 153.5,98.73 357.79,13.51 			"/>
			<g>
				<path fill="#1284B3" d="M300.24-20.78c-9.35-5.64-20.49,0.59-30.25,16.77c-9.79,16.19-11.55,55.13-11.62,57.44
					c-0.32,9.55,35.63-20.85,45.4-37.04C313.53,0.19,309.56-15.17,300.24-20.78z M292.45,17.13c-8.04,13.13-32.12,40.95-30.17,34.19
					c0.48-1.61,8.68-29.26,16.76-42.41c8-13.1,14.84-19.47,18.55-17.19C301.34-6.04,300.47,4,292.45,17.13z"/>
				<path fill="#1284B3" d="M216.53,25.88c-15.5-5.01-27.56,1.39-30.45,10.33c-2.86,8.93,4.53,17.03,20.06,22.03
					c15.5,4.98,48.48-1.24,50.45-1.63C264.66,54.99,232.02,30.85,216.53,25.88z M254.34,55.76c-1.4,0.03-24.8,0.35-36.88-2.8
					c-12.08-3.15-18.6-7.06-17.68-10.61c0.94-3.54,8.97-5.42,21.03-2.24C232.88,43.26,260.07,55.64,254.34,55.76z"/>
				<polygon fill="#1284B3" points="325.21,228.06 253.69,56.67 263.5,52.53 335.06,223.97 				"/>
			</g>
		</g>
	</g>
	<polygon fill="#00B5FF" points="1474,147.32 0,183.2 0,273.5 1474,273.5 	"/>
	<rect y="273.5" fill="#00B5FF" width="1474" height="113.5"/>
	<g>
		<path fill="#FFFFFF" d="M1260.24,225.56h-94.73v-19.93l34.02-34.39c10.08-10.32,16.66-17.47,19.74-21.46
			c3.09-3.98,5.31-7.68,6.67-11.08c1.36-3.4,2.04-6.92,2.04-10.57c0-5.44-1.5-9.49-4.5-12.14c-3-2.66-7-3.98-12-3.98
			c-5.25,0-10.35,1.21-15.29,3.61c-4.95,2.41-10.1,5.84-15.48,10.29l-15.57-18.45c6.67-5.69,12.2-9.7,16.59-12.05
			c4.39-2.35,9.18-4.16,14.37-5.42c5.19-1.27,11-1.9,17.43-1.9c8.47,0,15.94,1.54,22.43,4.63c6.49,3.09,11.52,7.42,15.11,12.98
			c3.59,5.56,5.38,11.93,5.38,19.09c0,6.24-1.1,12.1-3.29,17.56c-2.19,5.47-5.59,11.08-10.19,16.82
			c-4.6,5.75-12.71,13.94-24.33,24.56l-17.43,16.4v1.3h59.04L1260.24,225.56L1260.24,225.56z"/>
		<path fill="#FFFFFF" d="M1277.29,212.3c0-5.19,1.39-9.12,4.17-11.77c2.78-2.66,6.83-3.98,12.14-3.98c5.13,0,9.1,1.36,11.91,4.08
			c2.81,2.72,4.22,6.61,4.22,11.68c0,4.88-1.42,8.73-4.27,11.54c-2.84,2.81-6.8,4.22-11.86,4.22c-5.19,0-9.21-1.38-12.05-4.12
			C1278.71,221.19,1277.29,217.31,1277.29,212.3z"/>
		<path fill="#FFFFFF" d="M1398.99,225.56h-28.64v-78.42l0.28-12.88l0.46-14.09c-4.76,4.76-8.06,7.88-9.92,9.36l-15.57,12.51
			l-13.81-17.24l43.66-34.76h23.54L1398.99,225.56L1398.99,225.56z"/>
	</g>
</g>
<g>
	<path fill="#FFFFFF" d="M138.91-77.52h-12.9l-46.98-72.85h-0.48l0.3,4.86c0.48,7.28,0.72,13.6,0.72,18.96v49.02h-10.2v-87.73h12.78
		l2.7,4.26l28.8,44.52l15.3,23.82h0.48c-0.08-0.96-0.24-4.39-0.48-10.29c-0.24-5.9-0.36-10.17-0.36-12.81v-49.5h10.32L138.91-77.52
		L138.91-77.52z"/>
	<path fill="#FFFFFF" d="M189.26-76.32c-9.88,0-17.63-2.99-23.25-8.97c-5.62-5.98-8.43-14.21-8.43-24.69
		c0-10.56,2.62-18.97,7.86-25.23c5.24-6.26,12.32-9.39,21.24-9.39c8.28,0,14.88,2.67,19.8,8.01c4.92,5.34,7.38,12.57,7.38,21.69
		v6.54h-45.12c0.2,7.48,2.1,13.16,5.7,17.04c3.6,3.88,8.7,5.82,15.3,5.82c3.52,0,6.86-0.31,10.02-0.93
		c3.16-0.62,6.86-1.83,11.1-3.63v9.48c-3.64,1.56-7.06,2.66-10.26,3.3C197.4-76.64,193.62-76.32,189.26-76.32z M186.56-135.79
		c-5.16,0-9.24,1.66-12.24,4.98c-3,3.32-4.78,7.94-5.34,13.86h33.54c-0.08-6.16-1.5-10.84-4.26-14.04
		C195.5-134.19,191.6-135.79,186.56-135.79z"/>
	<path fill="#FFFFFF" d="M287.78-110.59c0,10.76-2.72,19.16-8.16,25.2c-5.44,6.04-12.96,9.06-22.56,9.06
		c-5.96,0-11.24-1.39-15.84-4.17c-4.6-2.78-8.14-6.77-10.62-11.97c-2.48-5.2-3.72-11.24-3.72-18.12c0-10.72,2.68-19.07,8.04-25.05
		c5.36-5.98,12.88-8.97,22.56-8.97c9.28,0,16.65,3.05,22.11,9.15C285.05-129.36,287.78-121.07,287.78-110.59z M238.04-110.59
		c0,8.28,1.63,14.57,4.89,18.87c3.26,4.3,8.07,6.45,14.43,6.45c6.28,0,11.06-2.15,14.34-6.45c3.28-4.3,4.92-10.59,4.92-18.87
		c0-8.28-1.65-14.51-4.95-18.69s-8.13-6.27-14.49-6.27C244.42-135.55,238.04-127.23,238.04-110.59z"/>
	<path fill="#FFFFFF" d="M347.79-95.71c0,6.16-2.3,10.93-6.9,14.31c-4.6,3.38-11.06,5.07-19.38,5.07c-8.68,0-15.58-1.38-20.7-4.14
		v-9.84c7.24,3.52,14.22,5.28,20.94,5.28c5.44,0,9.4-0.88,11.88-2.64c2.48-1.76,3.72-4.12,3.72-7.08c0-2.6-1.19-4.8-3.57-6.6
		c-2.38-1.8-6.61-3.86-12.69-6.18c-6.2-2.4-10.56-4.45-13.08-6.15c-2.52-1.7-4.37-3.61-5.55-5.73c-1.18-2.12-1.77-4.7-1.77-7.74
		c0-5.4,2.2-9.66,6.6-12.78c4.4-3.12,10.44-4.68,18.12-4.68c7.48,0,14.48,1.48,21,4.44l-3.66,8.58c-6.68-2.8-12.7-4.2-18.06-4.2
		c-4.48,0-7.88,0.71-10.2,2.13c-2.32,1.42-3.48,3.37-3.48,5.85c0,2.4,1,4.39,3,5.97c2,1.58,6.66,3.77,13.98,6.57
		c5.48,2.04,9.53,3.94,12.15,5.7c2.62,1.76,4.55,3.74,5.79,5.94C347.17-101.42,347.79-98.78,347.79-95.71z"/>
</g>
</svg>
