<?xml version="1.0" encoding="utf-8"?>
<!-- Generator: Adobe Illustrator 16.0.4, SVG Export Plug-In . SVG Version: 6.00 Build 0)  -->
<!DOCTYPE svg PUBLIC "-//W3C//DTD SVG 1.1//EN" "http://www.w3.org/Graphics/SVG/1.1/DTD/svg11.dtd">
<svg version="1.1" id="Layer_1" xmlns="http://www.w3.org/2000/svg" xmlns:xlink="http://www.w3.org/1999/xlink" x="0px" y="0px"
	 width="1474px" height="387px" viewBox="0 0 1474 387" enable-background="new 0 0 1474 387" xml:space="preserve">
<g>
	<polygon fill="#F44711" points="1474,0 0,0 0,138.859 1474,100.387 	"/>
	<polygon fill="#4D4D4D" points="1474,38.266 0,109.714 0,234 1474,234 	"/>
	<polygon fill="#CCCC29" points="1474,80.998 0,121.695 0,282 1474,282 	"/>
	<g>
		<g>
			<path fill="#E0E07F" d="M858.806,277.441c0,0-42.441-17.564-72.392-29.221c-29.548-11.504-72.01-30.158-72.01-30.158
				s8.478-15.625,25.016-55.833c16.525-40.229,27.031-70.765,27.031-70.765l144.398,59.355c0,0-15.513,32.718-30.066,68.104
				C866.232,254.355,858.806,277.441,858.806,277.441z"/>
			<polygon fill="#C1BD34" points="908.004,173.055 754.286,109.848 760.696,89.077 918.023,153.786 			"/>
			<g>
				<path fill="#ADA53E" d="M905.384,103.877c-2.015-8.143-11.457-10.813-25.554-7.322c-14.116,3.476-36.234,23.685-37.528,24.896
					c-5.359,5.016,30.691,8.031,44.797,4.542C901.204,122.494,907.394,111.992,905.384,103.877z M880.549,120.243
					c-11.507,2.769-39.706,4.799-34.973,2.182c1.137-0.617,20.619-11.184,32.153-13.941c11.467-2.775,18.646-2.516,19.423,0.742
					C897.966,112.484,892.041,117.47,880.549,120.243z"/>
				<path fill="#ADA53E" d="M834.536,83.742c-5.704-11.148-15.734-14.22-22.162-10.938c-6.406,3.301-6.793,11.715-1.072,22.872
					c5.718,11.125,27.019,25.672,28.302,26.527C844.869,125.718,840.253,94.866,834.536,83.742z M838.842,120.531
					c-0.774-0.741-13.67-13.283-18.521-21.563c-4.854-8.276-6.272-13.945-3.841-15.371c2.438-1.415,7.813,1.929,12.646,10.212
					C833.977,102.07,842.023,123.578,838.842,120.531z"/>
				<polygon fill="#ADA53E" points="783.724,252.672 837.997,120.672 845.577,123.755 791.303,255.801 				"/>
			</g>
		</g>
	</g>
	<polygon fill="#1284B3" points="1474,231.288 0,181.792 0,375 1474,375 	"/>
	<g>
		<g>
			<path fill="#33C4FF" d="M487.085,295.271c0,0-55.212,22.888-93.491,39.72c-37.771,16.604-94.007,38.508-94.007,38.508
				s-6.574-22.178-28.352-74.39c-21.81-52.219-40.239-89.98-40.239-89.98l187.474-78.248c0,0,15.832,44.375,34.998,90.327
				C472.678,267.193,487.085,295.271,487.085,295.271z"/>
			<polygon fill="#00B5FF" points="436.308,153.957 236.715,237.234 223.502,212.227 427.796,127.008 			"/>
			<g>
				<path fill="#1284B3" d="M370.247,92.718c-9.346-5.639-20.491,0.592-30.248,16.773c-9.791,16.187-11.548,55.132-11.623,57.437
					c-0.319,9.548,35.628-20.85,45.396-37.038C383.529,113.692,379.562,98.334,370.247,92.718z M362.454,130.626
					c-8.04,13.134-32.117,40.948-30.171,34.186c0.479-1.614,8.681-29.262,16.757-42.412c7.996-13.104,14.844-19.473,18.553-17.188
					C371.34,107.461,370.478,117.5,362.454,130.626z"/>
				<path fill="#1284B3" d="M286.533,139.377c-15.505-5.009-27.561,1.394-30.455,10.327c-2.858,8.933,4.527,17.029,20.057,22.031
					c15.495,4.977,48.479-1.238,50.445-1.631C334.663,168.493,302.028,144.353,286.533,139.377z M324.344,169.265
					c-1.396,0.033-24.8,0.355-36.882-2.798c-12.08-3.149-18.603-7.06-17.676-10.609c0.94-3.544,8.966-5.416,21.031-2.239
					C302.881,156.756,330.074,169.141,324.344,169.265z"/>
				<polygon fill="#1284B3" points="395.212,341.561 323.696,170.172 333.508,166.035 405.065,337.467 				"/>
			</g>
		</g>
	</g>
	<polygon fill="#00B5FF" points="1474,260.822 0,296.699 0,387 1474,387 	"/>
	<g>
		<path fill="#FFFFFF" d="M1116.228,300.998h-94.729v-19.93l34.017-34.387c10.075-10.32,16.655-17.475,19.743-21.459
			c3.091-3.984,5.314-7.679,6.676-11.076c1.357-3.398,2.041-6.922,2.041-10.566c0-5.438-1.5-9.484-4.496-12.143
			c-2.998-2.656-6.999-3.984-12.004-3.984c-5.252,0-10.352,1.205-15.293,3.614c-4.945,2.41-10.104,5.839-15.48,10.291
			l-15.569-18.445c6.672-5.686,12.202-9.702,16.59-12.049c4.388-2.348,9.179-4.156,14.366-5.423c5.19-1.267,11-1.9,17.429-1.9
			c8.466,0,15.939,1.544,22.429,4.634c6.489,3.09,11.524,7.416,15.105,12.978c3.587,5.562,5.38,11.925,5.38,19.093
			c0,6.241-1.099,12.096-3.291,17.563c-2.192,5.469-5.593,11.076-10.194,16.822c-4.604,5.748-12.715,13.936-24.332,24.564
			l-17.426,16.404v1.299h59.043L1116.228,300.998L1116.228,300.998z"/>
		<path fill="#FFFFFF" d="M1133.282,287.743c0-5.191,1.392-9.114,4.172-11.772c2.781-2.656,6.828-3.984,12.143-3.984
			c5.129,0,9.102,1.359,11.911,4.078c2.812,2.721,4.218,6.611,4.218,11.681c0,4.882-1.422,8.729-4.266,11.54
			c-2.842,2.812-6.798,4.217-11.863,4.217c-5.189,0-9.207-1.375-12.049-4.125C1134.704,296.626,1133.282,292.748,1133.282,287.743z"
			/>
		<path fill="#FFFFFF" d="M1254.984,300.998h-28.644v-78.416l0.279-12.885l0.462-14.088c-4.756,4.758-8.062,7.879-9.917,9.359
			l-15.57,12.516l-13.812-17.241l43.657-34.758h23.543L1254.984,300.998L1254.984,300.998z"/>
	</g>
</g>
</svg>
