<?xml version="1.0" encoding="utf-8"?>
<!-- Generator: Adobe Illustrator 16.0.4, SVG Export Plug-In . SVG Version: 6.00 Build 0)  -->
<!DOCTYPE svg PUBLIC "-//W3C//DTD SVG 1.1//EN" "http://www.w3.org/Graphics/SVG/1.1/DTD/svg11.dtd">
<svg version="1.1" id="Layer_1" xmlns="http://www.w3.org/2000/svg" xmlns:xlink="http://www.w3.org/1999/xlink" x="0px" y="0px"
	 width="1474px" height="387px" viewBox="0 0 1474 387" enable-background="new 0 0 1474 387" xml:space="preserve">
<g>
	<polygon fill="#F44711" points="1474,0 0,0 0,138.859 1474,100.387 	"/>
	<polygon fill="#4D4D4D" points="1474,38.266 0,109.714 0,234 1474,234 	"/>
	<polygon fill="#CCCC29" points="1474,80.998 0,121.695 0,282 1474,282 	"/>
	<g>
		<g>
			<path fill="#E0E07F" d="M738.794,277.441c0,0-42.439-17.564-72.387-29.221c-29.546-11.503-72.008-30.158-72.008-30.158
				s8.478-15.625,25.016-55.833c16.525-40.229,27.03-70.765,27.03-70.765l144.394,59.355c0,0-15.512,32.718-30.066,68.104
				C746.221,254.355,738.794,277.441,738.794,277.441z"/>
			<polygon fill="#C1BD34" points="787.992,173.055 634.28,109.848 640.689,89.077 798.012,153.786 			"/>
			<g>
				<path fill="#ADA53E" d="M785.372,103.877c-2.015-8.143-11.457-10.813-25.554-7.322c-14.116,3.476-36.233,23.685-37.527,24.896
					c-5.36,5.016,30.69,8.031,44.796,4.542C781.192,122.494,787.382,111.992,785.372,103.877z M760.537,120.243
					c-11.507,2.769-39.705,4.799-34.972,2.182c1.137-0.617,20.618-11.184,32.152-13.941c11.467-2.775,18.647-2.516,19.423,0.742
					C777.954,112.484,772.029,117.47,760.537,120.243z"/>
				<path fill="#ADA53E" d="M714.526,83.742c-5.704-11.148-15.734-14.22-22.161-10.938c-6.406,3.301-6.792,11.715-1.072,22.872
					c5.717,11.125,27.016,25.672,28.299,26.527C724.858,125.718,720.242,94.866,714.526,83.742z M718.831,120.531
					c-0.775-0.741-13.669-13.283-18.52-21.563c-4.854-8.276-6.272-13.945-3.84-15.371c2.437-1.415,7.814,1.929,12.645,10.212
					C713.966,102.07,722.013,123.578,718.831,120.531z"/>
				<polygon fill="#ADA53E" points="663.716,252.672 717.986,120.672 725.566,123.755 671.294,255.801 				"/>
			</g>
		</g>
	</g>
	<polygon fill="#1284B3" points="1474,231.288 0,181.792 0,375 1474,375 	"/>
	<g>
		<g>
			<path fill="#33C4FF" d="M567.089,295.271c0,0-55.212,22.888-93.491,39.72c-37.771,16.604-94.007,38.508-94.007,38.508
				s-6.574-22.178-28.352-74.39c-21.81-52.219-40.239-89.98-40.239-89.98l187.474-78.248c0,0,15.832,44.375,34.998,90.327
				C552.682,267.193,567.089,295.271,567.089,295.271z"/>
			<polygon fill="#00B5FF" points="516.312,153.957 316.719,237.234 303.506,212.227 507.8,127.008 			"/>
			<g>
				<path fill="#1284B3" d="M450.25,92.718c-9.346-5.639-20.491,0.592-30.248,16.773c-9.791,16.187-11.548,55.132-11.623,57.437
					c-0.319,9.548,35.628-20.85,45.396-37.038C463.533,113.692,459.566,98.334,450.25,92.718z M442.458,130.626
					c-8.04,13.134-32.117,40.948-30.171,34.186c0.479-1.614,8.681-29.262,16.757-42.412c7.996-13.104,14.844-19.473,18.553-17.188
					C451.344,107.461,450.481,117.5,442.458,130.626z"/>
				<path fill="#1284B3" d="M366.537,139.377c-15.505-5.009-27.561,1.394-30.455,10.327c-2.858,8.933,4.527,17.029,20.057,22.031
					c15.495,4.977,48.479-1.238,50.445-1.631C414.667,168.493,382.032,144.353,366.537,139.377z M404.348,169.265
					c-1.396,0.033-24.8,0.355-36.882-2.798c-12.08-3.149-18.603-7.06-17.676-10.609c0.94-3.544,8.966-5.416,21.031-2.239
					C382.885,156.756,410.078,169.141,404.348,169.265z"/>
				<polygon fill="#1284B3" points="475.216,341.561 403.7,170.172 413.512,166.035 485.069,337.467 				"/>
			</g>
		</g>
	</g>
	<polygon fill="#00B5FF" points="1474,260.822 0,296.699 0,387 1474,387 	"/>
	<g>
		<path fill="#FFFFFF" d="M1016.218,290.997h-94.729v-19.93l34.017-34.387c10.075-10.32,16.655-17.474,19.743-21.459
			c3.091-3.984,5.314-7.678,6.675-11.076c1.358-3.398,2.041-6.922,2.041-10.566c0-5.438-1.5-9.485-4.496-12.143
			c-2.998-2.656-6.999-3.984-12.004-3.984c-5.252,0-10.351,1.205-15.293,3.614c-4.945,2.41-10.104,5.839-15.48,10.291l-15.57-18.446
			c6.672-5.686,12.203-9.702,16.59-12.049c4.388-2.348,9.179-4.156,14.367-5.423c5.19-1.267,11-1.9,17.428-1.9
			c8.466,0,15.94,1.544,22.429,4.634c6.489,3.09,11.524,7.416,15.106,12.978c3.586,5.562,5.379,11.925,5.379,19.093
			c0,6.242-1.098,12.095-3.291,17.564c-2.192,5.469-5.592,11.076-10.194,16.822c-4.604,5.748-12.715,13.936-24.332,24.564
			l-17.426,16.404v1.299h59.043L1016.218,290.997L1016.218,290.997z"/>
		<path fill="#FFFFFF" d="M1033.272,277.742c0-5.191,1.392-9.114,4.172-11.772c2.781-2.656,6.828-3.984,12.143-3.984
			c5.129,0,9.101,1.359,11.911,4.078c2.812,2.72,4.218,6.611,4.218,11.68c0,4.882-1.422,8.729-4.266,11.54
			c-2.842,2.812-6.798,4.217-11.863,4.217c-5.19,0-9.207-1.375-12.049-4.125C1034.694,286.625,1033.272,282.747,1033.272,277.742z"
			/>
		<path fill="#FFFFFF" d="M1154.975,290.997h-28.643v-78.416l0.279-12.885l0.462-14.087c-4.756,4.758-8.062,7.879-9.917,9.36
			l-15.571,12.515l-13.812-17.241l43.657-34.758h23.543L1154.975,290.997L1154.975,290.997z"/>
	</g>
</g>
</svg>
