<?xml version="1.0" encoding="utf-8"?>
<!-- Generator: Adobe Illustrator 16.0.4, SVG Export Plug-In . SVG Version: 6.00 Build 0)  -->
<!DOCTYPE svg PUBLIC "-//W3C//DTD SVG 1.1//EN" "http://www.w3.org/Graphics/SVG/1.1/DTD/svg11.dtd">
<svg version="1.1" id="Layer_1" xmlns="http://www.w3.org/2000/svg" xmlns:xlink="http://www.w3.org/1999/xlink" x="0px" y="0px"
	 width="1474px" height="387px" viewBox="0 0 1474 387" enable-background="new 0 0 1474 387" xml:space="preserve">
<g>
	<polygon fill="#F44711" points="1474,0 0,0 0,138.859 1474,100.387 	"/>
	<polygon fill="#4D4D4D" points="1474,38.266 0,109.714 0,234 1474,234 	"/>
	<polygon fill="#CCCC29" points="1474,80.998 0,121.695 0,282 1474,282 	"/>
	<polygon fill="#1284B3" points="1474,231.288 0,181.791 0,375 1474,375 	"/>
	<g>
		<g>
			
				<rect x="331.938" y="162.194" transform="matrix(-0.9462 0.3236 -0.3236 -0.9462 736.1784 374.6848)" fill="#4D4D4D" width="9.999" height="172.71"/>
			
				<rect x="302.208" y="96.826" transform="matrix(-0.9462 0.3236 -0.3236 -0.9462 697.4978 198.9643)" fill="#00B5FF" width="60" height="121.286"/>
			<polygon fill="#1284B3" points="351.99,88.734 298.864,62.685 272.814,115.809 			"/>
		</g>
		<g>
			
				<rect x="421.892" y="170.278" transform="matrix(-0.9425 -0.3341 0.3341 -0.9425 745.8976 627.2689)" fill="#4D4D4D" width="9.999" height="158.424"/>
			<g>
				
					<rect x="409.364" y="123.288" transform="matrix(-0.9425 -0.3341 0.3341 -0.9425 780.6138 494.8359)" fill="#E0E07F" width="46.997" height="113.996"/>
				<polygon fill="#ADA53E" points="481.854,139.297 461.874,97.374 419.951,117.354 				"/>
			</g>
		</g>
		<g>
			
				<rect x="277.046" y="182.192" transform="matrix(-0.6838 0.7297 -0.7297 -0.6838 660.1763 221.7192)" fill="#4D4D4D" width="10" height="143.429"/>
			<g>
				
					<rect x="215.186" y="180.583" transform="matrix(-0.6838 0.7297 -0.7297 -0.6838 556.5098 208.0008)" fill="#E0E07F" width="36.001" height="88.001"/>
				<polygon fill="#ADA53E" points="217.648,178.08 181.832,179.245 182.997,215.062 				"/>
			</g>
		</g>
	</g>
	<polygon fill="#00B5FF" points="1474,260.822 0,296.699 0,387 1474,387 	"/>
	<g>
		<path fill="#FFFFFF" d="M1186.234,300.998h-94.729v-19.93l34.017-34.387c10.075-10.32,16.655-17.474,19.743-21.459
			c3.091-3.984,5.314-7.678,6.675-11.076c1.358-3.398,2.041-6.92,2.041-10.566c0-5.438-1.5-9.484-4.496-12.143
			c-2.998-2.656-6.999-3.984-12.004-3.984c-5.252,0-10.351,1.205-15.293,3.613c-4.945,2.41-10.104,5.84-15.48,10.29l-15.57-18.445
			c6.672-5.686,12.203-9.701,16.59-12.049c4.388-2.348,9.179-4.156,14.367-5.423c5.19-1.267,11-1.899,17.428-1.899
			c8.466,0,15.94,1.543,22.429,4.633c6.489,3.091,11.524,7.416,15.106,12.979c3.586,5.561,5.379,11.925,5.379,19.093
			c0,6.24-1.098,12.097-3.291,17.564c-2.192,5.469-5.592,11.076-10.194,16.822c-4.604,5.748-12.715,13.936-24.332,24.564
			l-17.426,16.404v1.299h59.043L1186.234,300.998L1186.234,300.998z"/>
		<path fill="#FFFFFF" d="M1203.289,287.743c0-5.191,1.392-9.114,4.172-11.772c2.781-2.656,6.828-3.984,12.143-3.984
			c5.129,0,9.101,1.359,11.911,4.078c2.812,2.72,4.218,6.611,4.218,11.68c0,4.882-1.422,8.729-4.266,11.54
			c-2.842,2.812-6.798,4.217-11.863,4.217c-5.19,0-9.207-1.375-12.049-4.125C1204.711,296.626,1203.289,292.748,1203.289,287.743z"
			/>
		<path fill="#FFFFFF" d="M1324.991,300.998h-28.643v-78.416l0.279-12.885l0.462-14.088c-4.756,4.758-8.062,7.879-9.917,9.36
			l-15.571,12.515l-13.812-17.241l43.657-34.759h23.543L1324.991,300.998L1324.991,300.998z"/>
	</g>
</g>
</svg>
