<svg xmlns="http://www.w3.org/2000/svg" viewBox="0 0 529.53 125"><defs><style>.cls-1{fill:#12100b;}.cls-2{fill:#010101;}</style></defs><title>neos_foundation_monochrome</title><g id="Ebene_2" data-name="Ebene 2"><g id="Layer_1" data-name="Layer 1"><path class="cls-1" d="M184.16,73.67h24.09V76H186.7V90.08h19.35v2.3H186.7v15.49h-2.54Z"/><path class="cls-1" d="M232.24,108.45a16.74,16.74,0,0,1-12.46-5.3,17.18,17.18,0,0,1-3.47-5.59,18.48,18.48,0,0,1-1.22-6.69v-.1a18.35,18.35,0,0,1,1.25-6.72,17.77,17.77,0,0,1,3.49-5.64,16.51,16.51,0,0,1,5.45-3.88,17,17,0,0,1,7.06-1.44,16.63,16.63,0,0,1,12.46,5.3A17.23,17.23,0,0,1,248.27,84a18.52,18.52,0,0,1,1.22,6.69.06.06,0,0,1,0,.1,18.36,18.36,0,0,1-1.25,6.72,17.78,17.78,0,0,1-3.49,5.64,16.59,16.59,0,0,1-5.42,3.88A17,17,0,0,1,232.24,108.45Zm.1-2.3a14,14,0,0,0,10.43-4.47,15,15,0,0,0,3-4.86,16.4,16.4,0,0,0,1.07-6v-.1a16.25,16.25,0,0,0-1.1-6,15.26,15.26,0,0,0-3-4.89,14.32,14.32,0,0,0-4.62-3.3,14.27,14.27,0,0,0-16.29,3.25,15,15,0,0,0-3,4.86,16.41,16.41,0,0,0-1.08,6v.1a16.27,16.27,0,0,0,1.1,6,15.24,15.24,0,0,0,3,4.89,14.29,14.29,0,0,0,4.62,3.3A14,14,0,0,0,232.34,106.16Z"/><path class="cls-1" d="M273.12,108.4a16.1,16.1,0,0,1-5.64-1,12.24,12.24,0,0,1-4.45-2.83,12.73,12.73,0,0,1-2.91-4.64,18.09,18.09,0,0,1-1-6.33v-20h2.54V93.41q0,6.11,3.05,9.41t8.53,3.3a11.12,11.12,0,0,0,8.31-3.13q3.08-3.13,3.08-9.33v-20h2.54V93.36a18.82,18.82,0,0,1-1,6.47,13.08,13.08,0,0,1-2.88,4.71,12.11,12.11,0,0,1-4.42,2.88A15.87,15.87,0,0,1,273.12,108.4Z"/><path class="cls-1" d="M298.7,73.67h2.4l23.64,29.75V73.67h2.39v34.2h-1.91L301.09,77.48v30.39H298.7Z"/><path class="cls-1" d="M339.07,73.67h11.38A20.16,20.16,0,0,1,357.83,75a17.42,17.42,0,0,1,5.74,3.59,16,16,0,0,1,3.74,5.4,17,17,0,0,1,1.32,6.72v.1a17.17,17.17,0,0,1-1.32,6.74,15.94,15.94,0,0,1-3.74,5.42,17.73,17.73,0,0,1-5.74,3.62,19.82,19.82,0,0,1-7.38,1.32H339.07Zm11.38,31.9a17.26,17.26,0,0,0,6.45-1.15,14.46,14.46,0,0,0,4.88-3.14,14,14,0,0,0,3.1-4.66,15,15,0,0,0,1.1-5.76v-.1a15,15,0,0,0-1.1-5.73,14.16,14.16,0,0,0-3.1-4.71,14.58,14.58,0,0,0-4.88-3.19A16.94,16.94,0,0,0,350.45,76h-8.84v29.61Z"/><path class="cls-1" d="M389.24,73.42h2.44l15.93,34.44h-2.79l-4.35-9.58H380.3L376,107.87h-2.64ZM399.41,96l-9-19.79-9,19.79Z"/><path class="cls-1" d="M420.44,76H408.52v-2.3H434.9V76H423v31.9h-2.54Z"/><path class="cls-1" d="M443.67,73.67h2.54v34.2h-2.54Z"/><path class="cls-1" d="M473.76,108.45a16.74,16.74,0,0,1-12.46-5.3,17.17,17.17,0,0,1-3.47-5.59,18.48,18.48,0,0,1-1.22-6.69v-.1a18.34,18.34,0,0,1,1.25-6.72,17.76,17.76,0,0,1,3.49-5.64,16.51,16.51,0,0,1,5.45-3.88,17,17,0,0,1,7.06-1.44,16.63,16.63,0,0,1,12.46,5.3A17.21,17.21,0,0,1,489.79,84,18.5,18.5,0,0,1,491,90.67a.06.06,0,0,1,0,.1,18.36,18.36,0,0,1-1.25,6.72,17.79,17.79,0,0,1-3.49,5.64,16.58,16.58,0,0,1-5.42,3.88A17,17,0,0,1,473.76,108.45Zm.1-2.3a14,14,0,0,0,10.43-4.47,15,15,0,0,0,3-4.86,16.4,16.4,0,0,0,1.08-6v-.1a16.27,16.27,0,0,0-1.1-6,15.26,15.26,0,0,0-3-4.89,14.33,14.33,0,0,0-4.62-3.3,14.27,14.27,0,0,0-16.29,3.25,15,15,0,0,0-3,4.86,16.41,16.41,0,0,0-1.07,6v.1a16.28,16.28,0,0,0,1.1,6,15.24,15.24,0,0,0,3,4.89,14.28,14.28,0,0,0,4.62,3.3A14,14,0,0,0,473.86,106.16Z"/><path class="cls-1" d="M501.09,73.67h2.4l23.64,29.75V73.67h2.39v34.2h-1.91L503.49,77.48v30.39h-2.39Z"/><g id="NEOS"><path class="cls-1" d="M324.55,50.41,327.61,47c3.41,3,6.56,4.65,11.21,4.65,4.15,0,7.11-2.11,7.11-5.24,0-2.79-1.58-4.26-8.34-6-7.84-2-11.79-4.7-11.79-10.19,0-5.68,5.23-9.6,11.94-9.6A18.58,18.58,0,0,1,349.92,25l-2.86,3.67c-3.26-2.55-6-3.62-9.38-3.62-3.8,0-6.71,1.86-6.71,4.8S332.8,34.3,339.8,36c7.55,1.81,11.25,4.8,11.25,10.09,0,6.17-5.33,10-12.29,10A20.55,20.55,0,0,1,324.55,50.41Z"/><path class="cls-1" d="M273.28,38.36a18,18,0,1,1,18,17.73A17.57,17.57,0,0,1,273.28,38.36Zm30.75,0c0-7.49-5.28-13.17-12.78-13.17s-12.78,5.68-12.78,13.17,5.28,13.17,12.78,13.17S304,45.86,304,38.36Z"/><path class="cls-1" d="M257.68,21.22v4.46H237.45V36h18v4.51h-18V51h20.48v4.46H232.46V21.22Z"/><path class="cls-1" d="M188.73,21.22l20.09,25.32V21.22h4.88V55.51h-4.1L189,29.5v26H184.1V21.22Z"/></g><path class="cls-2" d="M94.59,125H71.37L44.95,87.27v22.24L23.85,125H0V7.28L9.88,0H36.26L66.47,43V15.49L87.57,0h23.85V112.67ZM2.63,8.61V121.09l17.58-12.91V47.35l52.61,75.12h20.7l12.78-9.32H87.19L10,3.17ZM22.78,122.53l19.54-14.35V83.51L22.84,55.59v53.94l-17.72,13ZM12.85,2.63,88.68,110.68h20.11V2.63H89.32V80.16L34.89,2.63ZM69.1,46.79l17.58,25.1v-68L69.1,16.82Z"/></g></g></svg>