<svg xmlns="http://www.w3.org/2000/svg" viewBox="0 0 529.68 124.72"><defs><style>.cls-1{fill:#009fe3;}.cls-2{fill:#fff;}</style></defs><title>neos_foundation_negative_dark</title><g id="Ebene_2" data-name="Ebene 2"><g id="Layer_1" data-name="Layer 1"><path class="cls-1" d="M184.32,73.53H208.4v2.3H186.86V89.95h19.35v2.3H186.86v15.49h-2.54Z"/><path class="cls-1" d="M232.4,108.32a16.74,16.74,0,0,1-12.46-5.3,17.18,17.18,0,0,1-3.47-5.59,18.48,18.48,0,0,1-1.22-6.69v-.1a18.35,18.35,0,0,1,1.25-6.72A17.77,17.77,0,0,1,220,78.27a16.51,16.51,0,0,1,5.45-3.88,17,17,0,0,1,7.06-1.44A16.63,16.63,0,0,1,245,78.25a17.23,17.23,0,0,1,3.47,5.59,18.52,18.52,0,0,1,1.22,6.69.06.06,0,0,1,0,.1,18.36,18.36,0,0,1-1.25,6.72,17.78,17.78,0,0,1-3.49,5.64,16.59,16.59,0,0,1-5.42,3.88A17,17,0,0,1,232.4,108.32Zm.1-2.3a14,14,0,0,0,10.43-4.47,15,15,0,0,0,3-4.86,16.4,16.4,0,0,0,1.07-6v-.1a16.25,16.25,0,0,0-1.1-6,15.26,15.26,0,0,0-3-4.89,14.32,14.32,0,0,0-4.62-3.3A14.27,14.27,0,0,0,222,79.71a15,15,0,0,0-3,4.86,16.41,16.41,0,0,0-1.08,6v.1a16.27,16.27,0,0,0,1.1,6,15.24,15.24,0,0,0,3,4.89,14.29,14.29,0,0,0,4.62,3.3A14,14,0,0,0,232.5,106Z"/><path class="cls-1" d="M273.27,108.27a16.1,16.1,0,0,1-5.64-1,12.24,12.24,0,0,1-4.45-2.83,12.73,12.73,0,0,1-2.91-4.64,18.09,18.09,0,0,1-1-6.33v-20h2.54V93.27q0,6.11,3.05,9.41t8.53,3.3a11.12,11.12,0,0,0,8.31-3.13q3.08-3.13,3.08-9.33v-20h2.54V93.22a18.82,18.82,0,0,1-1,6.47,13.08,13.08,0,0,1-2.88,4.71,12.11,12.11,0,0,1-4.42,2.88A15.87,15.87,0,0,1,273.27,108.27Z"/><path class="cls-1" d="M298.85,73.53h2.4l23.64,29.75V73.53h2.39v34.2h-1.91L301.25,77.34v30.39h-2.39Z"/><path class="cls-1" d="M339.22,73.53h11.38A20.16,20.16,0,0,1,358,74.83a17.42,17.42,0,0,1,5.74,3.59,16,16,0,0,1,3.74,5.4,17,17,0,0,1,1.32,6.72v.1a17.17,17.17,0,0,1-1.32,6.74,15.94,15.94,0,0,1-3.74,5.42,17.73,17.73,0,0,1-5.74,3.62,19.82,19.82,0,0,1-7.38,1.32H339.22Zm11.38,31.9a17.26,17.26,0,0,0,6.45-1.15,14.46,14.46,0,0,0,4.88-3.14,14,14,0,0,0,3.1-4.66,15,15,0,0,0,1.1-5.76v-.1A15,15,0,0,0,365,84.9a14.16,14.16,0,0,0-3.1-4.71A14.58,14.58,0,0,0,357.06,77a16.94,16.94,0,0,0-6.45-1.18h-8.84v29.61Z"/><path class="cls-1" d="M389.4,73.29h2.44l15.93,34.44H405l-4.35-9.58H380.46l-4.35,9.58h-2.64Zm10.16,22.57-9-19.79-9,19.79Z"/><path class="cls-1" d="M420.6,75.83H408.68v-2.3h26.38v2.3H423.14v31.9H420.6Z"/><path class="cls-1" d="M443.83,73.53h2.54v34.2h-2.54Z"/><path class="cls-1" d="M473.92,108.32a16.74,16.74,0,0,1-12.46-5.3A17.17,17.17,0,0,1,458,97.42a18.48,18.48,0,0,1-1.22-6.69v-.1A18.34,18.34,0,0,1,458,83.91a17.76,17.76,0,0,1,3.49-5.64A16.51,16.51,0,0,1,467,74.39,17,17,0,0,1,474,72.94a16.63,16.63,0,0,1,12.46,5.3,17.21,17.21,0,0,1,3.47,5.59,18.5,18.5,0,0,1,1.22,6.69.06.06,0,0,1,0,.1,18.36,18.36,0,0,1-1.25,6.72,17.79,17.79,0,0,1-3.49,5.64,16.58,16.58,0,0,1-5.42,3.88A17,17,0,0,1,473.92,108.32Zm.1-2.3a14,14,0,0,0,10.43-4.47,15,15,0,0,0,3-4.86,16.4,16.4,0,0,0,1.08-6v-.1a16.27,16.27,0,0,0-1.1-6,15.26,15.26,0,0,0-3-4.89,14.33,14.33,0,0,0-4.62-3.3,14.27,14.27,0,0,0-16.29,3.25,15,15,0,0,0-3,4.86,16.41,16.41,0,0,0-1.07,6v.1a16.28,16.28,0,0,0,1.1,6,15.24,15.24,0,0,0,3,4.89,14.28,14.28,0,0,0,4.62,3.3A14,14,0,0,0,474,106Z"/><path class="cls-1" d="M501.25,73.53h2.4l23.64,29.75V73.53h2.39v34.2h-1.91L503.64,77.34v30.39h-2.39Z"/><g id="NEOS"><path class="cls-2" d="M324.71,50.27l3.06-3.43c3.41,3,6.56,4.65,11.21,4.65,4.15,0,7.11-2.11,7.11-5.24,0-2.79-1.58-4.26-8.34-6-7.84-2-11.79-4.7-11.79-10.19,0-5.68,5.23-9.6,11.94-9.6a18.58,18.58,0,0,1,12.19,4.41l-2.86,3.67C344,26,341.19,25,337.84,25c-3.8,0-6.71,1.86-6.71,4.8S333,34.16,340,35.88c7.55,1.81,11.25,4.8,11.25,10.09,0,6.17-5.33,10-12.29,10A20.55,20.55,0,0,1,324.71,50.27Z"/><path class="cls-2" d="M273.43,38.23a18,18,0,1,1,18,17.73A17.57,17.57,0,0,1,273.43,38.23Zm30.75,0c0-7.49-5.28-13.17-12.78-13.17s-12.78,5.68-12.78,13.17S283.9,51.4,291.39,51.4,304.18,45.72,304.18,38.23Z"/><path class="cls-2" d="M257.83,21.08v4.46H237.6V35.83h18v4.51h-18V50.91h20.48v4.46H232.62V21.08Z"/><path class="cls-2" d="M188.89,21.08,209,46.41V21.08h4.88V55.37h-4.1l-20.63-26v26h-4.88V21.08Z"/></g><polygon class="cls-1" points="89.03 0 68.27 15.13 68.27 46.77 89.03 76.12 89.03 0"/><polygon class="cls-1" points="89.03 112.82 9.24 0 0 6.76 0 124.72 20.75 109.6 20.75 51.18 72.65 124.72 95.35 124.72 111.73 112.82 89.03 112.82"/><polygon class="cls-2" points="20.75 51.18 20.75 109.6 0 124.72 22.7 124.72 43.46 109.6 43.46 83.35 20.75 51.18"/><polygon class="cls-2" points="89.03 76.12 89.03 0 111.73 0 111.73 112.82 89.03 112.82 9.24 0 35.19 0 89.03 76.12"/></g></g></svg>