<svg xmlns="http://www.w3.org/2000/svg" viewBox="0 0 453.39 125"><defs><style>.cls-1{fill:#12100b;}.cls-2{fill:#010101;}</style></defs><title>neos_monochrome</title><g id="Ebene_2" data-name="Ebene 2"><g id="Layer_1" data-name="Layer 1"><path class="cls-1" d="M410.47,84.59l5-5.54c5.52,4.91,10.63,7.52,18.14,7.52,6.71,0,11.51-3.4,11.51-8.47,0-4.51-2.56-6.89-13.51-9.66-12.7-3.25-19.1-7.6-19.1-16.47,0-9.19,8.47-15.52,19.34-15.52,8.07,0,14,2.62,19.74,7.13l-4.63,5.94c-5.28-4.12-9.75-5.86-15.18-5.86-6.16,0-10.87,3-10.87,7.76,0,4.59,3,7.13,14.31,9.9,12.23,2.93,18.22,7.76,18.22,16.31,0,10-8.63,16.16-19.9,16.16C424.53,93.78,417.11,90.53,410.47,84.59Z"/><path class="cls-1" d="M327.45,65.11c0-15.68,12.15-28.67,29.09-28.67s29.09,13,29.09,28.67-12.15,28.67-29.09,28.67S327.45,80.79,327.45,65.11Zm49.78,0c0-12.12-8.55-21.3-20.7-21.3s-20.7,9.19-20.7,21.3,8.55,21.3,20.7,21.3S377.23,77.22,377.23,65.11Z"/><path class="cls-1" d="M302.19,37.39V44.6H269.43V61.23H298.6v7.29H269.43V85.62h33.16v7.21H261.36V37.39Z"/><path class="cls-1" d="M190.56,37.39l32.52,40.94V37.39H231V92.83h-6.63L191,50.77V92.83H183V37.39Z"/><path class="cls-2" d="M94.59,125H71.37L44.95,87.27v22.24L23.85,125H0V7.28L9.88,0H36.26L66.47,43V15.49L87.57,0h23.85V112.67ZM2.63,8.61V121.09l17.58-12.91V47.35l52.61,75.12h20.7l12.78-9.32H87.19L10,3.17ZM22.78,122.53l19.54-14.35V83.51L22.84,55.59v53.94l-17.72,13ZM12.85,2.63,88.68,110.68h20.11V2.63H89.32V80.16L34.89,2.63ZM69.1,46.79l17.58,25.1v-68L69.1,16.82Z"/></g></g></svg>