<svg xmlns="http://www.w3.org/2000/svg" viewBox="0 0 446.99 124.72"><defs><style>.cls-1{fill:#fff;}.cls-2{fill:#28234c;}</style></defs><title>neos_flow_negative_light</title><g id="Ebene_2" data-name="Ebene 2"><g id="Layer_1" data-name="Layer 1"><polygon class="cls-1" points="183.62 38.84 183.62 94.13 191.56 94.13 191.56 70.87 220.45 70.87 220.45 63.47 191.56 63.47 191.56 46.33 223.88 46.33 223.88 38.84 183.62 38.84 183.62 38.84"/><polygon class="cls-1" points="245.66 38.84 245.66 94.13 283.64 94.13 283.64 86.64 253.6 86.64 253.6 38.84 245.66 38.84 245.66 38.84"/><polygon class="cls-1" points="403.77 38.69 389.81 81.23 375.27 38.84 366.67 38.84 386.41 94.51 392.8 94.51 406.83 53.23 420.78 94.51 427.25 94.51 446.99 38.84 438.62 38.84 424.07 81.23 410.11 38.69 403.77 38.69 403.77 38.69"/><path class="cls-1" d="M345.3,66.44c0-12.09-8.45-21.25-20.46-21.25s-20.46,9.16-20.46,21.25,8.45,21.25,20.46,21.25,20.46-9.16,20.46-21.25Zm-49.22,0a28.76,28.76,0,0,1,57.51,0,28.76,28.76,0,0,1-57.51,0Z"/><polygon class="cls-2" points="89.03 0 68.28 15.13 68.28 46.77 89.03 76.12 89.03 0"/><polygon class="cls-2" points="89.03 112.82 9.24 0 0 6.76 0 124.72 20.75 109.6 20.75 51.18 72.65 124.72 95.35 124.72 111.73 112.82 89.03 112.82"/><polygon class="cls-1" points="20.75 51.18 20.75 109.6 0 124.72 22.7 124.72 43.46 109.6 43.46 83.35 20.75 51.18"/><polygon class="cls-1" points="89.03 76.12 89.03 0 111.73 0 111.73 112.82 89.03 112.82 9.24 0 35.19 0 89.03 76.12"/></g></g></svg>