<svg xmlns="http://www.w3.org/2000/svg" viewBox="0 0 446.83 125"><defs><style>.cls-1{fill:#12100b;}.cls-2{fill:#010101;}</style></defs><title>neos_flow_monochrome</title><g id="Ebene_2" data-name="Ebene 2"><g id="Layer_1" data-name="Layer 1"><polygon class="cls-1" points="183.47 38.4 183.47 93.68 191.41 93.68 191.41 70.43 220.3 70.43 220.3 63.02 191.41 63.02 191.41 45.88 223.73 45.88 223.73 38.4 183.47 38.4 183.47 38.4"/><polygon class="cls-1" points="245.51 38.4 245.51 93.68 283.49 93.68 283.49 86.2 253.45 86.2 253.45 38.4 245.51 38.4 245.51 38.4"/><polygon class="cls-1" points="403.62 38.25 389.65 80.79 375.11 38.4 366.51 38.4 386.25 94.06 392.65 94.06 406.67 52.79 420.62 94.06 427.1 94.06 446.83 38.4 438.46 38.4 423.92 80.79 409.96 38.25 403.62 38.25 403.62 38.25"/><path class="cls-1" d="M345.14,66c0-12.09-8.45-21.25-20.46-21.25S304.22,53.92,304.22,66s8.45,21.25,20.46,21.25S345.14,78.09,345.14,66Zm-49.22,0a28.76,28.76,0,0,1,57.51,0,28.76,28.76,0,0,1-57.51,0Z"/><path class="cls-2" d="M94.59,125H71.37L44.95,87.27v22.24L23.85,125H0V7.28L9.88,0H36.26L66.47,43V15.49L87.57,0h23.85V112.67ZM2.63,8.61V121.09l17.58-12.91V47.35l52.61,75.12h20.7l12.78-9.32H87.19L10,3.17ZM22.78,122.53l19.54-14.35V83.51L22.84,55.59v53.94l-17.72,13ZM12.85,2.63,88.68,110.68h20.11V2.63H89.32V80.16L34.89,2.63ZM69.1,46.79l17.58,25.1v-68L69.1,16.82Z"/></g></g></svg>