<svg xmlns="http://www.w3.org/2000/svg" viewBox="0 0 351.9 173.16"><defs><style>.cls-1{fill:#12100b;}.cls-2{fill:#010101;}</style></defs><title>meet_neos_monochrome</title><g id="Ebene_2" data-name="Ebene 2"><g id="Layer_1" data-name="Layer 1"><path class="cls-1" d="M184.1,156.07h1.18L192,166l6.74-9.94h1.18v16.8h-1.25V158.28L192,168h-.1l-6.66-9.67v14.59H184.1Z"/><path class="cls-1" d="M212.51,173.14a7.89,7.89,0,0,1-2.77-.47,6,6,0,0,1-2.18-1.39,6.25,6.25,0,0,1-1.43-2.28,8.89,8.89,0,0,1-.5-3.11v-9.82h1.25v9.7a6.55,6.55,0,0,0,1.5,4.62,6.2,6.2,0,0,0,8.27.08,6.28,6.28,0,0,0,1.51-4.58v-9.82h1.25v9.67a9.24,9.24,0,0,1-.5,3.18,6.42,6.42,0,0,1-1.42,2.32,6,6,0,0,1-2.17,1.42A7.81,7.81,0,0,1,212.51,173.14Z"/><path class="cls-1" d="M225.09,156.07h1.18l11.61,14.62V156.07h1.18v16.8h-.94l-11.85-14.93v14.93h-1.18Z"/><path class="cls-1" d="M245.18,156.07h1.25v16.8h-1.25Z"/><path class="cls-1" d="M260.15,173.16a8.15,8.15,0,0,1-6-2.51,8.49,8.49,0,0,1-1.75-2.75,9,9,0,0,1-.64-3.38v0a8.91,8.91,0,0,1,.64-3.36,8.76,8.76,0,0,1,1.75-2.77,8.12,8.12,0,0,1,6-2.56,10,10,0,0,1,2,.19,8,8,0,0,1,1.69.55,8.92,8.92,0,0,1,1.46.85,14.14,14.14,0,0,1,1.33,1.09l-.89.91a13.48,13.48,0,0,0-1.15-1,7.25,7.25,0,0,0-1.28-.78,7.59,7.59,0,0,0-1.49-.52,7.48,7.48,0,0,0-1.74-.19,6.81,6.81,0,0,0-5.05,2.17,7.56,7.56,0,0,0-1.49,2.39,8,8,0,0,0-.54,3v0a7.91,7.91,0,0,0,.55,3,7.63,7.63,0,0,0,1.5,2.4,7,7,0,0,0,2.24,1.61,6.72,6.72,0,0,0,2.81.59,6.9,6.9,0,0,0,3.17-.68,10.72,10.72,0,0,0,2.62-1.93l.84.82a15.78,15.78,0,0,1-1.38,1.19,8.58,8.58,0,0,1-1.51.92,8.44,8.44,0,0,1-1.73.6A9,9,0,0,1,260.15,173.16Z"/><path class="cls-1" d="M271.22,156.07h1.25v7.8h10.75v-7.8h1.25v16.8h-1.25V165H272.46v7.87h-1.25Z"/><path class="cls-1" d="M297.23,171.94l6.26-5.66q1-.93,1.74-1.7a11.48,11.48,0,0,0,1.15-1.44,5.07,5.07,0,0,0,.64-1.29,4.37,4.37,0,0,0,.19-1.29,3.49,3.49,0,0,0-.31-1.49,3.54,3.54,0,0,0-.83-1.14,3.65,3.65,0,0,0-1.2-.72,4.17,4.17,0,0,0-1.45-.25,4.6,4.6,0,0,0-2.74.8,9.46,9.46,0,0,0-2.18,2.32l-.94-.62a12.93,12.93,0,0,1,1.14-1.5,6.83,6.83,0,0,1,1.3-1.13,5.76,5.76,0,0,1,1.57-.73,6.88,6.88,0,0,1,2-.26,5.56,5.56,0,0,1,2,.35,4.62,4.62,0,0,1,2.62,2.44,4.34,4.34,0,0,1,.38,1.82v0a5.2,5.2,0,0,1-.24,1.61,5.88,5.88,0,0,1-.76,1.5,12.65,12.65,0,0,1-1.31,1.58q-.79.83-1.9,1.84l-5.14,4.66h9.5v1.2H297.23Z"/><path class="cls-1" d="M319.7,173.16a6,6,0,0,1-2.89-.7,6.75,6.75,0,0,1-2.18-1.88,8.78,8.78,0,0,1-1.38-2.76,11.23,11.23,0,0,1-.48-3.3v0a11.09,11.09,0,0,1,.49-3.31,8.8,8.8,0,0,1,1.4-2.77,7,7,0,0,1,2.2-1.9,5.88,5.88,0,0,1,2.89-.71,6,6,0,0,1,2.89.7,6.75,6.75,0,0,1,2.18,1.88,8.78,8.78,0,0,1,1.38,2.76,11.23,11.23,0,0,1,.48,3.3v0a11.16,11.16,0,0,1-.49,3.31,8.8,8.8,0,0,1-1.4,2.77,7,7,0,0,1-2.2,1.9A5.89,5.89,0,0,1,319.7,173.16Zm0-1.13a4.47,4.47,0,0,0,2.34-.62,5.76,5.76,0,0,0,1.78-1.67,8.13,8.13,0,0,0,1.13-2.4,10,10,0,0,0,.4-2.82v0a10.15,10.15,0,0,0-.4-2.83,7.94,7.94,0,0,0-1.14-2.41,6,6,0,0,0-1.8-1.68,4.68,4.68,0,0,0-4.69,0,5.77,5.77,0,0,0-1.78,1.67,8.08,8.08,0,0,0-1.13,2.4,10,10,0,0,0-.4,2.82v0a10,10,0,0,0,.4,2.82,8.07,8.07,0,0,0,1.14,2.41,5.93,5.93,0,0,0,1.8,1.69A4.47,4.47,0,0,0,319.74,172Z"/><path class="cls-1" d="M333.38,157.25l-3.24,1.1-.34-1,3.85-1.42h1v16.92h-1.25Z"/><path class="cls-1" d="M346,173.16a6.23,6.23,0,0,1-2.4-.46,5.66,5.66,0,0,1-1.87-1.22,7.27,7.27,0,0,1-.92-1.13,6.05,6.05,0,0,1-.66-1.37,9.81,9.81,0,0,1-.41-1.76,16.22,16.22,0,0,1-.14-2.29v0a12.69,12.69,0,0,1,.48-3.55,9.4,9.4,0,0,1,1.37-2.89,6.57,6.57,0,0,1,2.16-1.94,5.73,5.73,0,0,1,2.83-.71,6.28,6.28,0,0,1,2.59.52,9.92,9.92,0,0,1,2.26,1.43l-.79,1a8.3,8.3,0,0,0-2-1.32,5.14,5.14,0,0,0-2.18-.46,4.37,4.37,0,0,0-2.32.64,5.39,5.39,0,0,0-1.76,1.79,9,9,0,0,0-1.09,2.76,14,14,0,0,0-.32,3.53,8.06,8.06,0,0,1,.84-1.2,5.58,5.58,0,0,1,1.12-1,5.37,5.37,0,0,1,1.45-.69,6.18,6.18,0,0,1,1.85-.25,6.5,6.5,0,0,1,2.2.37,5.85,5.85,0,0,1,1.84,1,5.22,5.22,0,0,1,1.27,1.61,4.47,4.47,0,0,1,.48,2.07v0a5.36,5.36,0,0,1-1.7,4,5.89,5.89,0,0,1-1.86,1.15A6.27,6.27,0,0,1,346,173.16Zm.1-1.13a4.69,4.69,0,0,0,1.84-.35,4.36,4.36,0,0,0,1.42-.94,4.15,4.15,0,0,0,.91-1.38,4.4,4.4,0,0,0,.32-1.68v0a3.87,3.87,0,0,0-.34-1.61,3.76,3.76,0,0,0-.95-1.28,4.43,4.43,0,0,0-1.44-.84,5.35,5.35,0,0,0-1.84-.3,4.9,4.9,0,0,0-1.9.36,4.74,4.74,0,0,0-1.48.95,4.48,4.48,0,0,0-1,1.33,3.54,3.54,0,0,0-.35,1.51v0a3.93,3.93,0,0,0,.36,1.67,4,4,0,0,0,1,1.34,4.71,4.71,0,0,0,1.51.89A5.39,5.39,0,0,0,346.12,172Z"/><g id="NEOS"><path class="cls-1" d="M324.55,102.85l3.06-3.43c3.41,3,6.56,4.65,11.21,4.65,4.15,0,7.11-2.11,7.11-5.24,0-2.79-1.58-4.26-8.34-6-7.84-2-11.79-4.7-11.79-10.19,0-5.68,5.23-9.6,11.94-9.6a18.58,18.58,0,0,1,12.19,4.41l-2.86,3.67c-3.26-2.55-6-3.62-9.38-3.62-3.8,0-6.71,1.86-6.71,4.8s1.83,4.41,8.84,6.12c7.55,1.81,11.25,4.8,11.25,10.09,0,6.17-5.33,10-12.29,10A20.55,20.55,0,0,1,324.55,102.85Z"/><path class="cls-1" d="M273.28,90.8a18,18,0,1,1,18,17.73A17.57,17.57,0,0,1,273.28,90.8Zm30.75,0c0-7.49-5.28-13.17-12.78-13.17s-12.78,5.68-12.78,13.17S283.74,104,291.24,104,304,98.3,304,90.8Z"/><path class="cls-1" d="M257.68,73.66v4.46H237.45V88.4h18v4.51h-18v10.58h20.48v4.46H232.46V73.66Z"/><path class="cls-1" d="M188.73,73.66,208.82,99V73.66h4.88v34.28h-4.1L189,81.94v26H184.1V73.66Z"/></g><path class="cls-1" d="M184.11,21.31h2.39l13.73,20.23L214,21.31h2.39v34.2h-2.54V25.8L200.25,45.49h-.2L186.5,25.8V55.51h-2.39Z"/><path class="cls-1" d="M228.29,21.31h24.33v2.3H230.83V37.14h19.59v2.3H230.83V53.21h22v2.3H228.29Z"/><path class="cls-1" d="M261.68,21.31H286v2.3H264.22V37.14h19.59v2.3H264.22V53.21h22v2.3H261.68Z"/><path class="cls-1" d="M305.72,23.6H293.79v-2.3h26.38v2.3H308.26v31.9h-2.54Z"/><path class="cls-2" d="M94.59,125H71.37L44.95,87.27v22.24L23.85,125H0V7.28L9.88,0H36.26L66.47,43V15.49L87.57,0h23.85V112.67ZM2.63,8.61V121.09l17.58-12.91V47.35l52.61,75.12h20.7l12.78-9.32H87.19L10,3.17ZM22.78,122.53l19.54-14.35V83.51L22.84,55.59v53.94l-17.72,13ZM12.85,2.63,88.68,110.68h20.11V2.63H89.32V80.16L34.89,2.63ZM69.1,46.79l17.58,25.1v-68L69.1,16.82Z"/></g></g></svg>