<svg id="Layer_1" data-name="Layer 1" xmlns="http://www.w3.org/2000/svg" viewBox="0 0 170.08 170.08"><defs><style>.cls-1{fill:#231f20;}</style></defs><title>2017_lidStickers_macbook_60x60mm</title><polygon class="cls-1" points="95.53 120.2 63.31 74.2 63.31 111.97 53.98 118.82 53.98 53.22 57.68 50.49 103.5 115.8 113.43 115.8 107.38 120.2 95.53 120.2"/><polygon class="cls-1" points="93.59 75.5 93.59 58.11 102.93 51.26 102.93 88.82 93.59 75.5"/><polygon class="cls-1" points="56.64 120.24 66.03 113.36 66.03 82.74 76.49 97.74 76.49 111.97 65.23 120.24 56.64 120.24"/><polygon class="cls-1" points="104.98 113.18 60.6 49.93 72.34 49.93 105.64 97.37 105.64 49.93 116.1 49.93 116.1 113.18 104.98 113.18"/><path class="cls-1" d="M85,170.08a85,85,0,1,1,85-85A85.14,85.14,0,0,1,85,170.08Zm9-47.22h14.32l10.41-7.63v-68h-15l-13,9.51v14.9L73.75,47.22H57.54l-6.27,4.62v71h15l13-9.51V101.61Z" transform="translate(0 0)"/></svg>