<svg id="Layer_1" data-name="Layer 1" xmlns="http://www.w3.org/2000/svg" viewBox="0 0 136.06 136.06"><defs><style>.cls-1{fill:#231f20;}</style></defs><title>2017_lidStickers_macbook_48x48mm_mask_offset</title><polygon class="cls-1" points="76.43 96.16 50.65 59.36 50.65 89.57 43.19 95.06 43.19 42.57 46.14 40.4 82.8 92.64 90.74 92.64 85.91 96.16 76.43 96.16"/><polygon class="cls-1" points="74.87 60.4 74.87 46.49 82.34 41 82.34 71.06 74.87 60.4"/><polygon class="cls-1" points="45.31 96.19 52.82 90.68 52.82 66.19 61.19 78.19 61.19 89.57 52.18 96.19 45.31 96.19"/><polygon class="cls-1" points="83.99 90.55 48.48 39.95 57.87 39.95 84.51 77.9 84.51 39.95 92.88 39.95 92.88 90.55 83.99 90.55"/><path class="cls-1" d="M68,136.06a68,68,0,1,1,68-68A68.11,68.11,0,0,1,68,136.06Zm7.23-37.78H86.71L95,92.18V37.78h-12L72.71,45.39V57.31L59,37.78H46l-5,3.7V98.28H53l10.36-7.61V81.29Z"/></svg>