<?xml version="1.0" encoding="utf-8"?>
<!-- Generator: Adobe Illustrator 15.0.2, SVG Export Plug-In . SVG Version: 6.00 Build 0)  -->
<!DOCTYPE svg PUBLIC "-//W3C//DTD SVG 1.1//EN" "http://www.w3.org/Graphics/SVG/1.1/DTD/svg11.dtd">
<svg version="1.1" id="Layer_1" xmlns="http://www.w3.org/2000/svg" xmlns:xlink="http://www.w3.org/1999/xlink" x="0px" y="0px"
	 width="170.078px" height="170.078px" viewBox="0 0 170.078 170.078" enable-background="new 0 0 170.078 170.078"
	 xml:space="preserve">
<g>
	<polygon points="57.99,49.922 53.622,53.142 53.622,119.717 64.026,112.074 64.026,76.073 95.168,120.537 107.419,120.537 
		114.979,115.024 103.674,115.024 	"/>
	<polygon points="103.374,50.361 92.968,58.003 92.968,75.74 103.374,90.595 	"/>
	<polygon points="65.584,112.878 55.095,120.569 65.547,120.569 77.11,112.074 77.11,97.476 65.584,80.951 	"/>
	<polygon points="59.668,49.601 104.557,113.561 116.458,113.561 116.458,49.601 104.932,49.601 104.932,95.496 72.719,49.601 	"/>
	<path d="M85.038,0C38.073,0,0,38.073,0,85.038c0,46.966,38.073,85.04,85.038,85.04c46.967,0,85.04-38.074,85.04-85.04
		C170.078,38.073,132.005,0,85.038,0z M118.015,114.734l-9.963,7.3H94.307L78.668,99.699v13.165l-12.485,9.17H52.063v-69.68
		l5.85-4.31h15.616l17.883,25.477V57.213l12.484-9.169h14.118V114.734z"/>
</g>
</svg>
