<svg xmlns="http://www.w3.org/2000/svg" viewBox="0 0 541.46 173.16"><defs><style>.cls-1{fill:#12100b;}.cls-2{fill:#010101;}</style></defs><title>neos_conference_monochrome</title><g id="Ebene_2" data-name="Ebene 2"><g id="Layer_1" data-name="Layer 1"><path class="cls-1" d="M186.59,156.07h1.25v7.8h10.75v-7.8h1.25v16.8h-1.25V165H187.84v7.87h-1.25Z"/><path class="cls-1" d="M212.18,156h1.2l7.82,16.92h-1.37l-2.14-4.7h-9.91l-2.14,4.7h-1.3Zm5,11.09-4.42-9.72L208.31,167Z"/><path class="cls-1" d="M225.71,156.07h1.18l6.74,9.94,6.74-9.94h1.18v16.8H240.3V158.28L233.64,168h-.1l-6.66-9.67v14.59h-1.18Z"/><path class="cls-1" d="M247.5,156.07h6.92a7.58,7.58,0,0,1,2.55.4,4.76,4.76,0,0,1,1.81,1.09,3.61,3.61,0,0,1,1.08,2.65v0a4.17,4.17,0,0,1-.25,1.51,3.91,3.91,0,0,1-.66,1.13,4,4,0,0,1-.93.81,7.42,7.42,0,0,1-1,.54,7.75,7.75,0,0,1,1.45.52,4.54,4.54,0,0,1,1.2.81,3.84,3.84,0,0,1,.82,1.15,3.54,3.54,0,0,1,.31,1.52v0a4.16,4.16,0,0,1-.43,1.91,4.07,4.07,0,0,1-1.22,1.44,5.94,5.94,0,0,1-1.89.91,8.71,8.71,0,0,1-2.46.32H247.5Zm6.79,7.78a6.18,6.18,0,0,0,1.73-.23,4.16,4.16,0,0,0,1.37-.66,3,3,0,0,0,.9-1.09,3.34,3.34,0,0,0,.32-1.5v0a2.75,2.75,0,0,0-1.08-2.26,4.92,4.92,0,0,0-3.12-.86h-5.66v6.65Zm.54,7.9a5.68,5.68,0,0,0,3.42-.93,3,3,0,0,0,1.27-2.52v0a2.73,2.73,0,0,0-1.31-2.42,6.94,6.94,0,0,0-3.79-.86h-5.68v6.77Z"/><path class="cls-1" d="M272.42,173.14a7.89,7.89,0,0,1-2.77-.47,6,6,0,0,1-2.18-1.39A6.25,6.25,0,0,1,266,169a8.88,8.88,0,0,1-.5-3.11v-9.82h1.25v9.7a6.55,6.55,0,0,0,1.5,4.62,6.21,6.21,0,0,0,8.27.08,6.28,6.28,0,0,0,1.51-4.58v-9.82h1.25v9.67a9.24,9.24,0,0,1-.5,3.18,6.42,6.42,0,0,1-1.42,2.32,6,6,0,0,1-2.17,1.42A7.81,7.81,0,0,1,272.42,173.14Z"/><path class="cls-1" d="M285,156.07H292a7.94,7.94,0,0,1,2.76.44,5.38,5.38,0,0,1,2,1.21,4.32,4.32,0,0,1,.94,1.4,4.4,4.4,0,0,1,.34,1.72v0a4.56,4.56,0,0,1-.37,1.88,4.29,4.29,0,0,1-1,1.43,5.28,5.28,0,0,1-1.56,1,7.87,7.87,0,0,1-2,.52l5.54,7.18h-1.58l-5.35-7h-5.5v7H285Zm6.91,8.71a6.89,6.89,0,0,0,2-.26,4.73,4.73,0,0,0,1.55-.76,3.6,3.6,0,0,0,1-1.2,3.46,3.46,0,0,0,.37-1.62v0a3.24,3.24,0,0,0-1.26-2.7,5.66,5.66,0,0,0-3.56-1h-5.74v7.58Z"/><path class="cls-1" d="M311,173.16a8.85,8.85,0,0,1-3.56-.68,7.73,7.73,0,0,1-2.65-1.86,8.17,8.17,0,0,1-1.66-2.75,9.63,9.63,0,0,1-.58-3.35v0a9.26,9.26,0,0,1,.59-3.28,8.51,8.51,0,0,1,1.68-2.77,8.26,8.26,0,0,1,2.63-1.92,7.94,7.94,0,0,1,3.41-.72,11.38,11.38,0,0,1,1.88.14,7.94,7.94,0,0,1,1.58.43,8.69,8.69,0,0,1,1.39.7A10.84,10.84,0,0,1,317,158l-.82.94a12.41,12.41,0,0,0-1-.8,6.18,6.18,0,0,0-1.19-.64,7.86,7.86,0,0,0-1.43-.42,8.87,8.87,0,0,0-1.74-.16,6.51,6.51,0,0,0-2.81.6,6.68,6.68,0,0,0-2.18,1.63,7.65,7.65,0,0,0-1.43,2.4,8.07,8.07,0,0,0-.52,2.88v0a9,9,0,0,0,.49,3,6.79,6.79,0,0,0,1.43,2.4,6.66,6.66,0,0,0,2.27,1.58,7.55,7.55,0,0,0,3,.58,7.88,7.88,0,0,0,1.56-.16,9,9,0,0,0,1.46-.42,9.12,9.12,0,0,0,1.29-.61,7.47,7.47,0,0,0,1.06-.73v-4.81h-5.62v-1.13h6.79v6.46a11.22,11.22,0,0,1-2.84,1.76A9.14,9.14,0,0,1,311,173.16Z"/><path class="cls-1" d="M329.9,171.94l6.26-5.66q1-.93,1.74-1.7a11.56,11.56,0,0,0,1.15-1.44,5.11,5.11,0,0,0,.64-1.29,4.37,4.37,0,0,0,.19-1.29,3.48,3.48,0,0,0-.31-1.49,3.52,3.52,0,0,0-.83-1.14,3.65,3.65,0,0,0-1.2-.72,4.17,4.17,0,0,0-1.45-.25,4.59,4.59,0,0,0-2.74.8,9.44,9.44,0,0,0-2.18,2.32l-.94-.62a12.82,12.82,0,0,1,1.14-1.5,6.86,6.86,0,0,1,1.3-1.13,5.76,5.76,0,0,1,1.57-.73,6.88,6.88,0,0,1,2-.26,5.56,5.56,0,0,1,2,.35,4.62,4.62,0,0,1,2.62,2.44,4.34,4.34,0,0,1,.38,1.82v0a5.2,5.2,0,0,1-.24,1.61,5.88,5.88,0,0,1-.76,1.5,12.63,12.63,0,0,1-1.31,1.58q-.79.83-1.9,1.84l-5.14,4.66h9.5v1.2H329.9Z"/><path class="cls-1" d="M352.36,173.16a6,6,0,0,1-2.89-.7,6.75,6.75,0,0,1-2.18-1.88,8.77,8.77,0,0,1-1.38-2.76,11.23,11.23,0,0,1-.48-3.3v0a11.09,11.09,0,0,1,.49-3.31,8.78,8.78,0,0,1,1.4-2.77,7,7,0,0,1,2.2-1.9,5.89,5.89,0,0,1,2.89-.71,6,6,0,0,1,2.89.7,6.75,6.75,0,0,1,2.18,1.88,8.77,8.77,0,0,1,1.38,2.76,11.23,11.23,0,0,1,.48,3.3v0a11.13,11.13,0,0,1-.49,3.31,8.8,8.8,0,0,1-1.4,2.77,7,7,0,0,1-2.2,1.9A5.89,5.89,0,0,1,352.36,173.16Zm0-1.13a4.47,4.47,0,0,0,2.34-.62,5.77,5.77,0,0,0,1.78-1.67,8.11,8.11,0,0,0,1.13-2.4,10,10,0,0,0,.4-2.82v0a10.15,10.15,0,0,0-.4-2.83,7.91,7.91,0,0,0-1.14-2.41,6,6,0,0,0-1.8-1.68,4.68,4.68,0,0,0-4.69,0,5.77,5.77,0,0,0-1.78,1.67,8.08,8.08,0,0,0-1.13,2.4,10,10,0,0,0-.4,2.82v0a10,10,0,0,0,.4,2.82,8.07,8.07,0,0,0,1.14,2.41,5.93,5.93,0,0,0,1.8,1.69A4.47,4.47,0,0,0,352.41,172Z"/><path class="cls-1" d="M366,157.25l-3.24,1.1-.34-1,3.85-1.42h1v16.92H366Z"/><path class="cls-1" d="M382.12,157.27h-9.74v-1.2h11.14V157l-7.66,15.89h-1.37Z"/><path class="cls-1" d="M198.38,108.45a16.58,16.58,0,0,1-12.14-5.11,17.28,17.28,0,0,1-3.57-5.59,18.31,18.31,0,0,1-1.29-6.89v-.1a18.18,18.18,0,0,1,1.29-6.84,17.87,17.87,0,0,1,3.57-5.64,16.54,16.54,0,0,1,12.24-5.2,20.21,20.21,0,0,1,4.15.39,16.15,16.15,0,0,1,3.44,1.12,18.16,18.16,0,0,1,3,1.73,28.46,28.46,0,0,1,2.71,2.22L210,80.41a27.33,27.33,0,0,0-2.35-2A14.7,14.7,0,0,0,205,76.82a15.39,15.39,0,0,0-3-1.05,15.22,15.22,0,0,0-3.54-.39,13.85,13.85,0,0,0-10.28,4.42,15.32,15.32,0,0,0-3,4.86,16.22,16.22,0,0,0-1.1,6v.1a16.07,16.07,0,0,0,1.12,6,15.57,15.57,0,0,0,3.05,4.89,14.14,14.14,0,0,0,4.57,3.27,13.66,13.66,0,0,0,5.72,1.2,14,14,0,0,0,6.45-1.39,21.78,21.78,0,0,0,5.33-3.93l1.71,1.66a32.15,32.15,0,0,1-2.81,2.42,17.44,17.44,0,0,1-3.08,1.88,17.24,17.24,0,0,1-3.52,1.22A18.38,18.38,0,0,1,198.38,108.45Z"/><path class="cls-1" d="M235.1,108.45a16.74,16.74,0,0,1-12.46-5.3,17.18,17.18,0,0,1-3.47-5.59,18.48,18.48,0,0,1-1.22-6.69v-.1a18.35,18.35,0,0,1,1.25-6.72,17.77,17.77,0,0,1,3.49-5.64,16.51,16.51,0,0,1,5.45-3.88,17,17,0,0,1,7.06-1.44,16.63,16.63,0,0,1,12.46,5.3A17.23,17.23,0,0,1,251.12,84a18.52,18.52,0,0,1,1.22,6.69.06.06,0,0,1,0,.1,18.36,18.36,0,0,1-1.25,6.72,17.78,17.78,0,0,1-3.49,5.64,16.59,16.59,0,0,1-5.42,3.88A17,17,0,0,1,235.1,108.45Zm.1-2.3a14,14,0,0,0,10.43-4.47,15,15,0,0,0,3-4.86,16.4,16.4,0,0,0,1.07-6v-.1a16.25,16.25,0,0,0-1.1-6,15.26,15.26,0,0,0-3-4.89A14.32,14.32,0,0,0,241,76.6a14.27,14.27,0,0,0-16.29,3.25,15,15,0,0,0-3,4.86,16.41,16.41,0,0,0-1.08,6v.1a16.27,16.27,0,0,0,1.1,6,15.24,15.24,0,0,0,3,4.89,14.29,14.29,0,0,0,4.62,3.3A14,14,0,0,0,235.19,106.16Z"/><path class="cls-1" d="M262.43,73.67h2.4l23.64,29.75V73.67h2.39v34.2H289L264.82,77.48v30.39h-2.39Z"/><path class="cls-1" d="M302.8,73.67h24.09V76H305.34V90.08h19.35v2.3H305.34v15.49H302.8Z"/><path class="cls-1" d="M335.58,73.67h24.33V76H338.12V89.5h19.59v2.3H338.12v13.78h22v2.3H335.58Z"/><path class="cls-1" d="M369,73.67h14.36a16.16,16.16,0,0,1,5.62.9A11,11,0,0,1,393,77a8.79,8.79,0,0,1,1.91,2.86,9,9,0,0,1,.68,3.49v.1a9.26,9.26,0,0,1-.76,3.83,8.72,8.72,0,0,1-2.1,2.91,10.81,10.81,0,0,1-3.18,2,16.06,16.06,0,0,1-4,1l11.29,14.61H393.6L382.7,93.7H371.52v14.17H369ZM383,91.4a14,14,0,0,0,4-.54,9.62,9.62,0,0,0,3.15-1.54,7.35,7.35,0,0,0,2.08-2.45,7,7,0,0,0,.76-3.31v-.1A6.6,6.6,0,0,0,390.45,78q-2.56-2-7.26-2H371.52V91.4Z"/><path class="cls-1" d="M405.73,73.67h24.33V76H408.27V89.5h19.59v2.3H408.27v13.78h22v2.3H405.73Z"/><path class="cls-1" d="M439.12,73.67h2.4l23.64,29.75V73.67h2.39v34.2h-1.91L441.51,77.48v30.39h-2.39Z"/><path class="cls-1" d="M494.75,108.45a16.58,16.58,0,0,1-12.14-5.11A17.28,17.28,0,0,1,479,97.75a18.31,18.31,0,0,1-1.3-6.89v-.1a18.18,18.18,0,0,1,1.3-6.84,17.87,17.87,0,0,1,3.57-5.64,16.54,16.54,0,0,1,12.24-5.2,20.21,20.21,0,0,1,4.15.39,16.14,16.14,0,0,1,3.44,1.12,18.19,18.19,0,0,1,3,1.73,28.45,28.45,0,0,1,2.71,2.22l-1.81,1.86a27.49,27.49,0,0,0-2.34-2,14.69,14.69,0,0,0-2.61-1.59,15.38,15.38,0,0,0-3-1.05,15.22,15.22,0,0,0-3.54-.39,13.85,13.85,0,0,0-10.28,4.42,15.33,15.33,0,0,0-3,4.86,16.23,16.23,0,0,0-1.1,6v.1a16.09,16.09,0,0,0,1.12,6,15.58,15.58,0,0,0,3.05,4.89,14.13,14.13,0,0,0,4.57,3.27,13.66,13.66,0,0,0,5.72,1.2,14,14,0,0,0,6.45-1.39,21.77,21.77,0,0,0,5.33-3.93l1.71,1.66a32.2,32.2,0,0,1-2.81,2.42,17.47,17.47,0,0,1-3.08,1.88,17.25,17.25,0,0,1-3.52,1.22A18.39,18.39,0,0,1,494.75,108.45Z"/><path class="cls-1" d="M516.88,73.67h24.33V76H519.42V89.5H539v2.3H519.42v13.78h22v2.3H516.88Z"/><g id="NEOS"><path class="cls-1" d="M324.55,50.41,327.61,47c3.41,3,6.56,4.65,11.21,4.65,4.15,0,7.11-2.11,7.11-5.24,0-2.79-1.58-4.26-8.34-6-7.84-2-11.79-4.7-11.79-10.19,0-5.68,5.23-9.6,11.94-9.6A18.58,18.58,0,0,1,349.92,25l-2.86,3.67c-3.26-2.55-6-3.62-9.38-3.62-3.8,0-6.71,1.86-6.71,4.8S332.8,34.3,339.8,36c7.55,1.81,11.25,4.8,11.25,10.09,0,6.17-5.33,10-12.29,10A20.55,20.55,0,0,1,324.55,50.41Z"/><path class="cls-1" d="M273.28,38.36a18,18,0,1,1,18,17.73A17.57,17.57,0,0,1,273.28,38.36Zm30.75,0c0-7.49-5.28-13.17-12.78-13.17s-12.78,5.68-12.78,13.17,5.28,13.17,12.78,13.17S304,45.86,304,38.36Z"/><path class="cls-1" d="M257.68,21.22v4.46H237.45V36h18v4.51h-18V51h20.48v4.46H232.46V21.22Z"/><path class="cls-1" d="M188.73,21.22l20.09,25.32V21.22h4.88V55.51h-4.1L189,29.5v26H184.1V21.22Z"/></g><path class="cls-2" d="M94.59,125H71.37L44.95,87.27v22.24L23.85,125H0V7.28L9.88,0H36.26L66.47,43V15.49L87.57,0h23.85V112.67ZM2.63,8.61V121.09l17.58-12.91V47.35l52.61,75.12h20.7l12.78-9.32H87.19L10,3.17ZM22.78,122.53l19.54-14.35V83.51L22.84,55.59v53.94l-17.72,13ZM12.85,2.63,88.68,110.68h20.11V2.63H89.32V80.16L34.89,2.63ZM69.1,46.79l17.58,25.1v-68L69.1,16.82Z"/></g></g></svg>