<svg xmlns="http://www.w3.org/2000/svg" viewBox="0 0 541.61 173.02"><defs><style>.cls-1{fill:#28234c;}.cls-2{fill:#fff;}</style></defs><title>neos_conference_negative_light</title><g id="Ebene_2" data-name="Ebene 2"><g id="Layer_1" data-name="Layer 1"><path class="cls-1" d="M186.75,155.94H188v7.8h10.75v-7.8H200v16.8h-1.25v-7.87H188v7.87h-1.25Z"/><path class="cls-1" d="M212.33,155.82h1.2l7.82,16.92H220l-2.14-4.7h-9.91l-2.14,4.7h-1.3Zm5,11.09-4.42-9.72-4.44,9.72Z"/><path class="cls-1" d="M225.87,155.94H227l6.74,9.94,6.74-9.94h1.18v16.8h-1.25V158.14l-6.66,9.67h-.1L227,158.14v14.59h-1.18Z"/><path class="cls-1" d="M247.66,155.94h6.92a7.58,7.58,0,0,1,2.55.4,4.76,4.76,0,0,1,1.81,1.09,3.61,3.61,0,0,1,1.08,2.65v0a4.17,4.17,0,0,1-.25,1.51,3.91,3.91,0,0,1-.66,1.13,4,4,0,0,1-.93.81,7.42,7.42,0,0,1-1,.54,7.75,7.75,0,0,1,1.45.52,4.54,4.54,0,0,1,1.2.81,3.84,3.84,0,0,1,.82,1.15,3.54,3.54,0,0,1,.31,1.52v0a4.16,4.16,0,0,1-.43,1.91,4.07,4.07,0,0,1-1.22,1.44,5.94,5.94,0,0,1-1.89.91,8.71,8.71,0,0,1-2.46.32h-7.27Zm6.79,7.78a6.18,6.18,0,0,0,1.73-.23,4.16,4.16,0,0,0,1.37-.66,3,3,0,0,0,.9-1.09,3.34,3.34,0,0,0,.32-1.5v0a2.75,2.75,0,0,0-1.08-2.26,4.92,4.92,0,0,0-3.12-.86h-5.66v6.65Zm.54,7.9a5.68,5.68,0,0,0,3.42-.93,3,3,0,0,0,1.27-2.52v0a2.73,2.73,0,0,0-1.31-2.42,6.94,6.94,0,0,0-3.79-.86h-5.68v6.77Z"/><path class="cls-1" d="M272.57,173a7.89,7.89,0,0,1-2.77-.47,6,6,0,0,1-2.18-1.39,6.25,6.25,0,0,1-1.43-2.28,8.88,8.88,0,0,1-.5-3.11v-9.82h1.25v9.7a6.55,6.55,0,0,0,1.5,4.62,6.21,6.21,0,0,0,8.27.08,6.28,6.28,0,0,0,1.51-4.58v-9.82h1.25v9.67a9.24,9.24,0,0,1-.5,3.18,6.42,6.42,0,0,1-1.42,2.32,6,6,0,0,1-2.17,1.42A7.81,7.81,0,0,1,272.57,173Z"/><path class="cls-1" d="M285.15,155.94h7.06a7.94,7.94,0,0,1,2.76.44,5.38,5.38,0,0,1,2,1.21,4.32,4.32,0,0,1,.94,1.4,4.4,4.4,0,0,1,.34,1.72v0a4.56,4.56,0,0,1-.37,1.88,4.29,4.29,0,0,1-1,1.43,5.28,5.28,0,0,1-1.56,1,7.87,7.87,0,0,1-2,.52l5.54,7.18h-1.58l-5.35-7h-5.5v7h-1.25Zm6.91,8.71a6.89,6.89,0,0,0,2-.26,4.73,4.73,0,0,0,1.55-.76,3.6,3.6,0,0,0,1-1.2,3.46,3.46,0,0,0,.37-1.62v0a3.24,3.24,0,0,0-1.26-2.7,5.66,5.66,0,0,0-3.56-1h-5.74v7.58Z"/><path class="cls-1" d="M311.16,173a8.85,8.85,0,0,1-3.56-.68,7.73,7.73,0,0,1-2.65-1.86,8.17,8.17,0,0,1-1.66-2.75,9.63,9.63,0,0,1-.58-3.35v0a9.26,9.26,0,0,1,.59-3.28,8.51,8.51,0,0,1,1.68-2.77,8.26,8.26,0,0,1,2.63-1.92,7.94,7.94,0,0,1,3.41-.72,11.38,11.38,0,0,1,1.88.14,7.94,7.94,0,0,1,1.58.43,8.69,8.69,0,0,1,1.39.7,10.84,10.84,0,0,1,1.28.94l-.82.94a12.41,12.41,0,0,0-1-.8,6.18,6.18,0,0,0-1.19-.64,7.86,7.86,0,0,0-1.43-.42,8.87,8.87,0,0,0-1.74-.16,6.51,6.51,0,0,0-2.81.6A6.68,6.68,0,0,0,306,159a7.65,7.65,0,0,0-1.43,2.4,8.07,8.07,0,0,0-.52,2.88v0a9,9,0,0,0,.49,3,6.79,6.79,0,0,0,1.43,2.4,6.66,6.66,0,0,0,2.27,1.58,7.55,7.55,0,0,0,3,.58,7.88,7.88,0,0,0,1.56-.16,9,9,0,0,0,1.45-.42,9.12,9.12,0,0,0,1.29-.61,7.47,7.47,0,0,0,1.06-.73v-4.81H311V164h6.79v6.46a11.22,11.22,0,0,1-2.84,1.76A9.14,9.14,0,0,1,311.16,173Z"/><path class="cls-1" d="M330.05,171.8l6.26-5.66q1-.93,1.74-1.7a11.56,11.56,0,0,0,1.15-1.44,5.11,5.11,0,0,0,.64-1.29,4.37,4.37,0,0,0,.19-1.29,3.48,3.48,0,0,0-.31-1.49,3.52,3.52,0,0,0-.83-1.14,3.65,3.65,0,0,0-1.2-.72,4.17,4.17,0,0,0-1.45-.25,4.59,4.59,0,0,0-2.74.8,9.44,9.44,0,0,0-2.18,2.32l-.94-.62a12.82,12.82,0,0,1,1.14-1.5,6.86,6.86,0,0,1,1.3-1.13,5.76,5.76,0,0,1,1.57-.73,6.88,6.88,0,0,1,2-.26,5.56,5.56,0,0,1,2,.35,4.62,4.62,0,0,1,2.62,2.44,4.34,4.34,0,0,1,.38,1.82v0a5.2,5.2,0,0,1-.24,1.61,5.88,5.88,0,0,1-.76,1.5,12.63,12.63,0,0,1-1.31,1.58q-.79.83-1.9,1.84L332,171.54h9.5v1.2H330.05Z"/><path class="cls-1" d="M352.51,173a6,6,0,0,1-2.89-.7,6.75,6.75,0,0,1-2.18-1.88,8.77,8.77,0,0,1-1.38-2.76,11.23,11.23,0,0,1-.48-3.3v0a11.09,11.09,0,0,1,.49-3.31,8.78,8.78,0,0,1,1.4-2.77,7,7,0,0,1,2.2-1.9,5.89,5.89,0,0,1,2.89-.71,6,6,0,0,1,2.89.7,6.75,6.75,0,0,1,2.18,1.88A8.77,8.77,0,0,1,359,161a11.23,11.23,0,0,1,.48,3.3v0a11.13,11.13,0,0,1-.49,3.31,8.8,8.8,0,0,1-1.4,2.77,7,7,0,0,1-2.2,1.9A5.89,5.89,0,0,1,352.51,173Zm0-1.13a4.47,4.47,0,0,0,2.34-.62,5.77,5.77,0,0,0,1.78-1.67,8.11,8.11,0,0,0,1.13-2.4,10,10,0,0,0,.4-2.82v0a10.15,10.15,0,0,0-.4-2.83,7.91,7.91,0,0,0-1.14-2.41,6,6,0,0,0-1.8-1.68,4.68,4.68,0,0,0-4.69,0,5.77,5.77,0,0,0-1.78,1.67,8.08,8.08,0,0,0-1.13,2.4,10,10,0,0,0-.4,2.82v0a10,10,0,0,0,.4,2.82,8.07,8.07,0,0,0,1.14,2.41,5.93,5.93,0,0,0,1.8,1.69A4.47,4.47,0,0,0,352.56,171.9Z"/><path class="cls-1" d="M366.19,157.11l-3.24,1.1-.34-1,3.85-1.42h1v16.92h-1.25Z"/><path class="cls-1" d="M382.27,157.14h-9.74v-1.2h11.14v.91L376,172.74h-1.37Z"/><path class="cls-1" d="M198.53,108.32a16.58,16.58,0,0,1-12.14-5.11,17.28,17.28,0,0,1-3.57-5.59,18.31,18.31,0,0,1-1.29-6.89v-.1a18.18,18.18,0,0,1,1.29-6.84,17.87,17.87,0,0,1,3.57-5.64,16.54,16.54,0,0,1,12.24-5.2,20.21,20.21,0,0,1,4.15.39,16.15,16.15,0,0,1,3.44,1.12,18.16,18.16,0,0,1,3,1.73,28.46,28.46,0,0,1,2.71,2.22l-1.81,1.86a27.33,27.33,0,0,0-2.35-2,14.7,14.7,0,0,0-2.61-1.59,15.39,15.39,0,0,0-3-1.05,15.22,15.22,0,0,0-3.54-.39,13.85,13.85,0,0,0-10.28,4.42,15.32,15.32,0,0,0-3,4.86,16.22,16.22,0,0,0-1.1,6v.1a16.07,16.07,0,0,0,1.12,6,15.57,15.57,0,0,0,3.05,4.89,14.14,14.14,0,0,0,4.57,3.27,13.66,13.66,0,0,0,5.72,1.2,14,14,0,0,0,6.45-1.39,21.78,21.78,0,0,0,5.33-3.93l1.71,1.66a32.15,32.15,0,0,1-2.81,2.42,17.44,17.44,0,0,1-3.08,1.88,17.24,17.24,0,0,1-3.52,1.22A18.38,18.38,0,0,1,198.53,108.32Z"/><path class="cls-1" d="M235.25,108.32a16.74,16.74,0,0,1-12.46-5.3,17.18,17.18,0,0,1-3.47-5.59,18.48,18.48,0,0,1-1.22-6.69v-.1a18.35,18.35,0,0,1,1.25-6.72,17.77,17.77,0,0,1,3.49-5.64,16.51,16.51,0,0,1,5.45-3.88,17,17,0,0,1,7.06-1.44,16.63,16.63,0,0,1,12.46,5.3,17.23,17.23,0,0,1,3.47,5.59,18.52,18.52,0,0,1,1.22,6.69.06.06,0,0,1,0,.1,18.36,18.36,0,0,1-1.25,6.72,17.78,17.78,0,0,1-3.49,5.64,16.59,16.59,0,0,1-5.42,3.88A17,17,0,0,1,235.25,108.32Zm.1-2.3a14,14,0,0,0,10.43-4.47,15,15,0,0,0,3-4.86,16.4,16.4,0,0,0,1.07-6v-.1a16.25,16.25,0,0,0-1.1-6,15.26,15.26,0,0,0-3-4.89,14.32,14.32,0,0,0-4.62-3.3,14.27,14.27,0,0,0-16.29,3.25,15,15,0,0,0-3,4.86,16.41,16.41,0,0,0-1.08,6v.1a16.27,16.27,0,0,0,1.1,6,15.24,15.24,0,0,0,3,4.89,14.29,14.29,0,0,0,4.62,3.3A14,14,0,0,0,235.35,106Z"/><path class="cls-1" d="M262.58,73.53H265l23.64,29.75V73.53H291v34.2h-1.91L265,77.34v30.39h-2.39Z"/><path class="cls-1" d="M303,73.53H327v2.3H305.49V89.95h19.35v2.3H305.49v15.49H303Z"/><path class="cls-1" d="M335.74,73.53h24.33v2.3H338.28V89.36h19.59v2.3H338.28v13.78h22v2.3H335.74Z"/><path class="cls-1" d="M369.13,73.53H383.5a16.16,16.16,0,0,1,5.62.9,11,11,0,0,1,4,2.47A8.79,8.79,0,0,1,395,79.76a9,9,0,0,1,.68,3.49v.1a9.26,9.26,0,0,1-.76,3.83,8.72,8.72,0,0,1-2.1,2.91,10.81,10.81,0,0,1-3.18,2,16.06,16.06,0,0,1-4,1L397,107.73h-3.22l-10.9-14.17H371.67v14.17h-2.54ZM383.2,91.26a14,14,0,0,0,4-.54,9.62,9.62,0,0,0,3.15-1.54,7.35,7.35,0,0,0,2.08-2.45,7,7,0,0,0,.76-3.31v-.1a6.6,6.6,0,0,0-2.56-5.49q-2.56-2-7.26-2H371.67V91.26Z"/><path class="cls-1" d="M405.88,73.53h24.33v2.3H408.42V89.36H428v2.3H408.42v13.78h22v2.3H405.88Z"/><path class="cls-1" d="M439.27,73.53h2.4l23.64,29.75V73.53h2.39v34.2H465.8L441.67,77.34v30.39h-2.39Z"/><path class="cls-1" d="M494.9,108.32a16.58,16.58,0,0,1-12.14-5.11,17.28,17.28,0,0,1-3.57-5.59,18.31,18.31,0,0,1-1.3-6.89v-.1a18.18,18.18,0,0,1,1.3-6.84,17.87,17.87,0,0,1,3.57-5.64A16.54,16.54,0,0,1,495,72.94a20.21,20.21,0,0,1,4.15.39,16.14,16.14,0,0,1,3.44,1.12,18.19,18.19,0,0,1,3,1.73,28.45,28.45,0,0,1,2.71,2.22l-1.81,1.86a27.49,27.49,0,0,0-2.34-2,14.69,14.69,0,0,0-2.61-1.59,15.38,15.38,0,0,0-3-1.05,15.22,15.22,0,0,0-3.54-.39,13.85,13.85,0,0,0-10.28,4.42,15.33,15.33,0,0,0-3,4.86,16.23,16.23,0,0,0-1.1,6v.1a16.09,16.09,0,0,0,1.12,6,15.58,15.58,0,0,0,3.05,4.89,14.13,14.13,0,0,0,4.57,3.27A13.66,13.66,0,0,0,495,106a14,14,0,0,0,6.45-1.39,21.77,21.77,0,0,0,5.33-3.93l1.71,1.66a32.2,32.2,0,0,1-2.81,2.42,17.47,17.47,0,0,1-3.08,1.88,17.25,17.25,0,0,1-3.52,1.22A18.39,18.39,0,0,1,494.9,108.32Z"/><path class="cls-1" d="M517,73.53h24.33v2.3H519.58V89.36h19.59v2.3H519.58v13.78h22v2.3H517Z"/><g id="NEOS"><path class="cls-2" d="M324.71,50.27l3.06-3.43c3.41,3,6.56,4.65,11.21,4.65,4.15,0,7.11-2.11,7.11-5.24,0-2.79-1.58-4.26-8.34-6-7.84-2-11.79-4.7-11.79-10.19,0-5.68,5.23-9.6,11.94-9.6a18.58,18.58,0,0,1,12.19,4.41l-2.86,3.67C344,26,341.19,25,337.84,25c-3.8,0-6.71,1.86-6.71,4.8S333,34.16,340,35.88c7.55,1.81,11.25,4.8,11.25,10.09,0,6.17-5.33,10-12.29,10A20.55,20.55,0,0,1,324.71,50.27Z"/><path class="cls-2" d="M273.43,38.23a18,18,0,1,1,18,17.73A17.57,17.57,0,0,1,273.43,38.23Zm30.75,0c0-7.49-5.28-13.17-12.78-13.17s-12.78,5.68-12.78,13.17S283.9,51.4,291.39,51.4,304.18,45.72,304.18,38.23Z"/><path class="cls-2" d="M257.83,21.08v4.46H237.6V35.83h18v4.51h-18V50.91h20.48v4.46H232.62V21.08Z"/><path class="cls-2" d="M188.89,21.08,209,46.41V21.08h4.88V55.37h-4.1l-20.63-26v26h-4.88V21.08Z"/></g><polygon class="cls-1" points="89.03 0 68.27 15.13 68.27 46.77 89.03 76.12 89.03 0"/><polygon class="cls-1" points="89.03 112.82 9.24 0 0 6.76 0 124.72 20.75 109.6 20.75 51.18 72.65 124.72 95.35 124.72 111.73 112.82 89.03 112.82"/><polygon class="cls-2" points="20.75 51.18 20.75 109.6 0 124.72 22.7 124.72 43.46 109.6 43.46 83.35 20.75 51.18"/><polygon class="cls-2" points="89.03 76.12 89.03 0 111.73 0 111.73 112.82 89.03 112.82 9.24 0 35.19 0 89.03 76.12"/></g></g></svg>