<?xml version="1.0" encoding="UTF-8" standalone="no"?><!DOCTYPE svg PUBLIC "-//W3C//DTD SVG 1.1//EN" "http://www.w3.org/Graphics/SVG/1.1/DTD/svg11.dtd"><svg width="100%" height="100%" viewBox="0 0 686 200" version="1.1" xmlns="http://www.w3.org/2000/svg" xmlns:xlink="http://www.w3.org/1999/xlink" xml:space="preserve" style="fill-rule:evenodd;clip-rule:evenodd;stroke-linejoin:round;stroke-miterlimit:1.41421;"><g><path d="M206.396,148.184l-20.108,0l-75.837,-108.051l22.048,0l54.421,77.532l0,-77.532l19.476,0l0,108.051ZM139.919,145.675l-19.534,14.351l-17.661,0l17.722,-12.994l0,-53.938l19.473,27.916l0,24.665ZM185.173,37.5l-21.096,15.492l0,27.55l-30.209,-43.042l-26.379,0l-9.885,7.283l0,117.717l23.851,0l21.096,-15.492l0,-22.239l26.421,37.731l23.221,0l16.833,-12.333l0,-112.667l-23.853,0Z" style="fill:#231f20;fill-rule:nonzero;"/><path d="M319.867,76.412l0,55.559l7.98,0l0,-23.37l29.038,0l0,-7.442l-29.038,0l0,-17.227l32.485,0l0,-7.52l-40.465,0Z" style="fill:#231f20;fill-rule:nonzero;"/><path d="M382.223,76.412l0,55.559l38.166,0l0,-7.521l-30.187,0l0,-48.038l-7.979,0Z" style="fill:#231f20;fill-rule:nonzero;"/><path d="M541.127,76.26l-14.034,42.757l-14.617,-42.606l-8.64,0l19.836,55.942l6.43,0l14.093,-41.479l14.023,41.479l6.505,0l19.836,-55.942l-8.411,0l-14.616,42.606l-14.032,-42.757l-6.373,0Z" style="fill:#231f20;fill-rule:nonzero;"/><path d="M482.36,104.15c0,-12.147 -8.497,-21.357 -20.566,-21.357c-12.062,0 -20.563,9.21 -20.563,21.357c0,12.147 8.497,21.358 20.563,21.358c12.069,0 20.566,-9.211 20.566,-21.358ZM432.895,104.15c0,-15.719 12.068,-28.742 28.899,-28.742c16.833,0 28.901,13.023 28.901,28.742c0,15.72 -12.068,28.743 -28.901,28.743c-16.829,0 -28.899,-13.023 -28.899,-28.743Z" style="fill:#231f20;fill-rule:nonzero;"/></g></svg>