<?xml version="1.0" encoding="utf-8"?>
<!-- Generator: Adobe Illustrator 15.0.2, SVG Export Plug-In . SVG Version: 6.00 Build 0)  -->
<!DOCTYPE svg PUBLIC "-//W3C//DTD SVG 1.1//EN" "http://www.w3.org/Graphics/SVG/1.1/DTD/svg11.dtd">
<svg version="1.1" id="Layer_1" xmlns="http://www.w3.org/2000/svg" xmlns:xlink="http://www.w3.org/1999/xlink" x="0px" y="0px"
	 width="200px" height="200px" viewBox="0 0 200 200" enable-background="new 0 0 200 200" xml:space="preserve">
<path fill="#FFFFFF" d="M138.878,162.5h-23.222l-26.42-37.732v22.241L68.142,162.5H44.289V44.782l9.883-7.282h26.381l30.21,43.04
	V52.991L131.857,37.5h23.854v112.667L138.878,162.5z M46.922,46.112v112.474L64.5,145.674V84.853l52.611,75.12h20.695l12.776-9.315
	h-19.099L54.302,40.674L46.922,46.112z M67.068,160.025l19.537-14.352V121.01L67.132,93.094v53.938L49.41,160.025H67.068z
	 M57.136,40.131l75.837,108.053h20.105V40.131h-19.473v77.534L79.184,40.131H57.136z M113.395,84.289l17.578,25.098V41.414
	l-17.578,12.91V84.289z"/>
</svg>
