<?xml version="1.0" encoding="UTF-8" standalone="no"?><!DOCTYPE svg PUBLIC "-//W3C//DTD SVG 1.1//EN" "http://www.w3.org/Graphics/SVG/1.1/DTD/svg11.dtd"><svg width="100%" height="100%" viewBox="0 0 200 200" version="1.1" xmlns="http://www.w3.org/2000/svg" xmlns:xlink="http://www.w3.org/1999/xlink" xml:space="preserve" style="fill-rule:evenodd;clip-rule:evenodd;stroke-linejoin:round;stroke-miterlimit:1.41421;"><g><path d="M152.792,148.684l-20.108,0l-75.837,-108.051l22.048,0l54.421,77.532l0,-77.532l19.476,0l0,108.051ZM86.315,146.175l-19.534,14.351l-17.661,0l17.722,-12.994l0,-53.938l19.473,27.916l0,24.665ZM131.569,38l-21.096,15.492l0,27.55l-30.209,-43.042l-26.379,0l-9.885,7.283l0,117.717l23.852,0l21.095,-15.492l0,-22.239l26.421,37.731l23.221,0l16.833,-12.333l0,-112.667l-23.853,0Z" style="fill:#fff;fill-rule:nonzero;"/></g></svg>