<?xml version="1.0" encoding="UTF-8" standalone="no"?><!DOCTYPE svg PUBLIC "-//W3C//DTD SVG 1.1//EN" "http://www.w3.org/Graphics/SVG/1.1/DTD/svg11.dtd"><svg width="100%" height="100%" viewBox="0 0 686 200" version="1.1" xmlns="http://www.w3.org/2000/svg" xmlns:xlink="http://www.w3.org/1999/xlink" xml:space="preserve" style="fill-rule:evenodd;clip-rule:evenodd;stroke-linejoin:round;stroke-miterlimit:1.41421;"><g><path d="M326.722,76.915l32.306,41.036l0,-41.036l7.856,0l0,55.56l-6.587,0l-33.177,-42.146l0,42.146l-7.857,0l0,-55.56l7.459,0Z" style="fill:#fff;fill-rule:nonzero;"/><path d="M437.609,76.915l0,7.223l-32.543,0l0,16.668l28.971,0l0,7.303l-28.971,0l0,17.144l32.939,0l0,7.222l-40.955,0l0,-55.56l40.559,0Z" style="fill:#fff;fill-rule:nonzero;"/><path d="M512.14,104.695c0,-12.143 -8.492,-21.35 -20.557,-21.35c-12.064,0 -20.557,9.207 -20.557,21.35c0,12.144 8.493,21.351 20.557,21.351c12.065,0 20.557,-9.207 20.557,-21.351ZM462.692,104.695c0,-15.715 12.064,-28.733 28.891,-28.733c16.827,0 28.891,13.018 28.891,28.733c0,15.716 -12.064,28.732 -28.891,28.732c-16.827,0 -28.891,-13.016 -28.891,-28.732Z" style="fill:#fff;fill-rule:nonzero;"/><path d="M545.162,124.221l4.919,-5.556c5.478,4.921 10.558,7.54 18.019,7.54c6.668,0 11.43,-3.413 11.43,-8.493c0,-4.524 -2.54,-6.905 -13.414,-9.683c-12.62,-3.254 -18.97,-7.62 -18.97,-16.509c0,-9.207 8.413,-15.558 19.208,-15.558c8.017,0 13.891,2.62 19.605,7.144l-4.604,5.953c-5.238,-4.127 -9.684,-5.873 -15.08,-5.873c-6.112,0 -10.794,3.016 -10.794,7.778c0,4.604 2.936,7.144 14.207,9.921c12.144,2.937 18.097,7.779 18.097,16.351c0,10.001 -8.572,16.191 -19.764,16.191c-8.89,0 -16.272,-3.253 -22.859,-9.206Z" style="fill:#fff;fill-rule:nonzero;"/><path d="M205.792,148.684l-20.108,0l-75.837,-108.051l22.048,0l54.421,77.532l0,-77.532l19.476,0l0,108.051ZM139.315,146.175l-19.534,14.351l-17.661,0l17.722,-12.994l0,-53.938l19.473,27.916l0,24.665ZM184.569,38l-21.096,15.492l0,27.55l-30.209,-43.042l-26.379,0l-9.885,7.283l0,117.717l23.852,0l21.095,-15.492l0,-22.239l26.421,37.731l23.221,0l16.833,-12.333l0,-112.667l-23.853,0Z" style="fill:#fff;fill-rule:nonzero;"/></g></svg>