<?xml version="1.0" encoding="utf-8"?>
<!-- Generator: Adobe Illustrator 15.0.2, SVG Export Plug-In . SVG Version: 6.00 Build 0)  -->
<!DOCTYPE svg PUBLIC "-//W3C//DTD SVG 1.1//EN" "http://www.w3.org/Graphics/SVG/1.1/DTD/svg11.dtd">
<svg version="1.1" id="Layer_1" xmlns="http://www.w3.org/2000/svg" xmlns:xlink="http://www.w3.org/1999/xlink" x="0px" y="0px"
	 width="686px" height="200px" viewBox="0 0 686 200" enable-background="new 0 0 686 200" xml:space="preserve">
<g>
	<g>
		<path fill="#FFFFFF" d="M327.43,76.326l32.305,41.037V76.326h7.856v55.561h-6.587L327.826,89.74v42.146h-7.857V76.326H327.43z"/>
		<path fill="#FFFFFF" d="M438.314,76.326v7.223h-32.543v16.67h28.972v7.301h-28.972v17.145h32.939v7.223h-40.955V76.326H438.314z"
			/>
		<path fill="#FFFFFF" d="M463.397,104.107c0-15.717,12.065-28.734,28.892-28.734c16.827,0,28.892,13.018,28.892,28.734
			c0,15.715-12.064,28.732-28.892,28.732C475.463,132.84,463.397,119.822,463.397,104.107z M512.846,104.107
			c0-12.145-8.492-21.35-20.557-21.35c-12.063,0-20.557,9.205-20.557,21.35c0,12.143,8.493,21.352,20.557,21.352
			C504.354,125.459,512.846,116.25,512.846,104.107z"/>
		<path fill="#FFFFFF" d="M545.868,123.633l4.921-5.557c5.477,4.922,10.557,7.541,18.018,7.541c6.667,0,11.43-3.414,11.43-8.494
			c0-4.523-2.54-6.904-13.414-9.682c-12.62-3.254-18.97-7.621-18.97-16.51c0-9.209,8.413-15.559,19.207-15.559
			c8.017,0,13.891,2.621,19.604,7.145l-4.603,5.953c-5.238-4.127-9.685-5.875-15.081-5.875c-6.111,0-10.794,3.018-10.794,7.779
			c0,4.605,2.936,7.145,14.207,9.922c12.146,2.938,18.099,7.777,18.099,16.352c0,10-8.573,16.191-19.765,16.191
			C559.837,132.84,552.456,129.586,545.868,123.633z"/>
	</g>
	<path fill="#FFFFFF" d="M192.097,162.5h-23.222l-26.42-37.732v22.241L121.36,162.5H97.508V44.782l9.883-7.282h26.381l30.21,43.04
		V52.991L185.076,37.5h23.854v112.667L192.097,162.5z M100.14,46.112v112.474l17.579-12.912V84.853l52.611,75.12h20.695
		l12.776-9.315h-19.099L107.521,40.674L100.14,46.112z M120.287,160.025l19.537-14.352V121.01l-19.474-27.916v53.938l-17.723,12.994
		H120.287z M110.354,40.131l75.837,108.053h20.105V40.131h-19.473v77.534l-54.422-77.534H110.354z M166.613,84.289l17.578,25.098
		V41.414l-17.578,12.91V84.289z"/>
</g>
</svg>
