<?xml version="1.0" encoding="utf-8"?>
<!-- Generator: Adobe Illustrator 15.0.2, SVG Export Plug-In . SVG Version: 6.00 Build 0)  -->
<!DOCTYPE svg PUBLIC "-//W3C//DTD SVG 1.1//EN" "http://www.w3.org/Graphics/SVG/1.1/DTD/svg11.dtd">
<svg version="1.1" id="Layer_1" xmlns="http://www.w3.org/2000/svg" xmlns:xlink="http://www.w3.org/1999/xlink" x="0px" y="0px"
	 width="686px" height="200px" viewBox="0 0 686 200" enable-background="new 0 0 686 200" xml:space="preserve">
<g>
	<g>
		<path fill="#FFFFFF" d="M327.451,76.427l32.304,41.037V76.427h7.857v55.561h-6.588l-33.177-42.146v42.146h-7.857V76.427H327.451z"
			/>
		<path fill="#FFFFFF" d="M438.335,76.427v7.223h-32.543v16.67h28.973v7.301h-28.973v17.145h32.939v7.223h-40.955V76.427H438.335z"
			/>
		<path fill="#FFFFFF" d="M463.419,104.208c0-15.717,12.064-28.734,28.891-28.734c16.828,0,28.893,13.018,28.893,28.734
			c0,15.715-12.064,28.732-28.893,28.732C475.483,132.94,463.419,119.923,463.419,104.208z M512.866,104.208
			c0-12.145-8.492-21.35-20.557-21.35c-12.062,0-20.557,9.205-20.557,21.35c0,12.143,8.494,21.352,20.557,21.352
			C504.374,125.56,512.866,116.351,512.866,104.208z"/>
		<path fill="#FFFFFF" d="M545.89,123.733l4.92-5.557c5.477,4.922,10.557,7.541,18.018,7.541c6.668,0,11.43-3.414,11.43-8.494
			c0-4.523-2.539-6.904-13.414-9.682c-12.619-3.254-18.969-7.621-18.969-16.51c0-9.209,8.412-15.559,19.207-15.559
			c8.016,0,13.891,2.621,19.604,7.145l-4.602,5.953c-5.238-4.127-9.686-5.875-15.082-5.875c-6.111,0-10.793,3.018-10.793,7.779
			c0,4.605,2.936,7.145,14.207,9.922c12.145,2.938,18.098,7.777,18.098,16.352c0,10-8.572,16.191-19.764,16.191
			C559.858,132.94,552.478,129.687,545.89,123.733z"/>
	</g>
	<path fill="#FFFFFF" d="M185.143,38L164,53.783v27.544L133.847,38h-26.376L97,45.576V163h24.438L142,147.784v-22.237L168.944,163
		h23.218L209,150.941V38H185.143z M167,55.116l17-12.908v67.961l-17-25.094V55.116z M191.09,160h-20.69L118,85.639v60.811
		l-18,12.909V46.905l7.49-5.652L184.77,151h19.095L191.09,160z"/>
</g>
</svg>
