<?xml version="1.0" encoding="UTF-8" standalone="no"?><!DOCTYPE svg PUBLIC "-//W3C//DTD SVG 1.1//EN" "http://www.w3.org/Graphics/SVG/1.1/DTD/svg11.dtd"><svg width="100%" height="100%" viewBox="0 0 686 200" version="1.1" xmlns="http://www.w3.org/2000/svg" xmlns:xlink="http://www.w3.org/1999/xlink" xml:space="preserve" style="fill-rule:evenodd;clip-rule:evenodd;stroke-linejoin:round;stroke-miterlimit:1.41421;"><g><path d="M186.155,37.5l-20.642,15.163l0,31.715l20.642,29.413l0,-76.291Z" style="fill:#21204f;fill-rule:nonzero;"/><path d="M186.155,150.565l-79.358,-113.065l-9.193,6.774l0,118.226l20.643,-15.162l0,-58.548l51.618,73.71l22.58,0l16.291,-11.935l-22.581,0Z" style="fill:#21204f;fill-rule:nonzero;"/><path d="M118.247,88.79l0,58.548l-20.643,15.162l22.582,0l20.643,-15.162l0,-26.3l-22.582,-32.248l0,0Z" style="fill:#00aeef;fill-rule:nonzero;"/><path d="M186.155,113.791l0,-76.291l22.581,0l0,113.065l-22.581,0l-79.358,-113.065l25.808,0l53.55,76.291Z" style="fill:#00aeef;fill-rule:nonzero;"/><path d="M186.153,37.5l-20.643,15.161l0,31.717l20.643,29.412l0,-76.29l0,0Z" style="fill:#26224c;fill-rule:nonzero;"/><path d="M186.153,150.564l-79.356,-113.064l-9.193,6.774l0,118.226l20.643,-15.162l0,-58.548l51.616,73.71l22.58,0l16.292,-11.936l-22.582,0Z" style="fill:#26224c;fill-rule:nonzero;"/><path d="M118.247,88.79l0,58.548l-20.643,15.162l22.581,0l20.645,-15.162l0,-26.301l-22.583,-32.247l0,0Z" style="fill:#00adee;fill-rule:nonzero;"/><path d="M186.154,113.791l0,-76.29l22.582,0l0,113.064l-22.582,0l-79.356,-113.064l25.808,0l53.548,76.29Z" style="fill:#00adee;fill-rule:nonzero;"/><path d="M319.865,76.411l0,55.559l7.98,0l0,-23.37l29.038,0l0,-7.442l-29.038,0l0,-17.227l32.486,0l0,-7.52l-40.466,0l0,0Z" style="fill:#26224c;fill-rule:nonzero;"/><path d="M382.221,76.411l0,55.559l38.166,0l0,-7.52l-30.187,0l0,-48.039l-7.979,0Z" style="fill:#26224c;fill-rule:nonzero;"/><path d="M541.124,76.259l-14.034,42.756l-14.617,-42.605l-8.639,0l19.835,55.943l6.43,0l14.093,-41.48l14.023,41.48l6.506,0l19.835,-55.943l-8.411,0l-14.617,42.605l-14.031,-42.756l-6.373,0l0,0Z" style="fill:#26224c;fill-rule:nonzero;"/><path d="M482.357,104.15c0,-12.147 -8.497,-21.357 -20.565,-21.357c-12.063,0 -20.563,9.21 -20.563,21.357c0,12.146 8.497,21.356 20.563,21.356c12.068,0 20.565,-9.21 20.565,-21.356ZM432.893,104.15c0,-15.72 12.068,-28.742 28.899,-28.742c16.832,0 28.901,13.022 28.901,28.742c0,15.72 -12.069,28.742 -28.901,28.742c-16.829,0 -28.899,-13.022 -28.899,-28.742l0,0Z" style="fill:#26224c;fill-rule:nonzero;"/></g></svg>