<?xml version="1.0" encoding="utf-8"?>
<!-- Generator: Adobe Illustrator 15.0.2, SVG Export Plug-In . SVG Version: 6.00 Build 0)  -->
<!DOCTYPE svg PUBLIC "-//W3C//DTD SVG 1.1//EN" "http://www.w3.org/Graphics/SVG/1.1/DTD/svg11.dtd">
<svg version="1.1" id="Layer_1" xmlns="http://www.w3.org/2000/svg" xmlns:xlink="http://www.w3.org/1999/xlink" x="0px" y="0px"
	 width="686px" height="200px" viewBox="0 0 686 200" enable-background="new 0 0 686 200" xml:space="preserve">
<g>
	<polygon fill="#26224C" points="186.157,37.5 165.514,52.662 165.514,84.377 186.157,113.791 	"/>
	<polygon fill="#26224C" points="186.157,150.565 106.801,37.5 97.608,44.274 97.608,162.5 118.251,147.338 118.251,88.791 
		169.867,162.5 192.448,162.5 208.74,150.565 	"/>
	<polygon fill="#FFFFFF" points="118.251,88.791 118.251,147.338 97.608,162.5 120.189,162.5 140.834,147.338 140.834,121.038 	"/>
	<polygon fill="#FFFFFF" points="186.157,113.791 186.157,37.5 208.74,37.5 208.74,150.565 186.157,150.565 106.801,37.5 
		132.608,37.5 	"/>
	<g>
		<path fill="#FFFFFF" d="M327.331,76.416l32.304,41.034V76.416h7.857v55.56h-6.588l-33.176-42.146v42.146h-7.858v-55.56H327.331z"
			/>
		<path fill="#FFFFFF" d="M438.216,76.416v7.223h-32.543v16.667h28.972v7.303h-28.972v17.145h32.938v7.223h-40.955v-55.56H438.216z"
			/>
		<path fill="#FFFFFF" d="M463.299,104.195c0-15.715,12.063-28.732,28.891-28.732c16.826,0,28.893,13.018,28.893,28.732
			c0,15.716-12.066,28.733-28.893,28.733C475.362,132.929,463.299,119.911,463.299,104.195z M512.747,104.195
			c0-12.144-8.492-21.351-20.558-21.351c-12.062,0-20.557,9.207-20.557,21.351s8.494,21.351,20.557,21.351
			C504.255,125.546,512.747,116.339,512.747,104.195z"/>
		<path fill="#FFFFFF" d="M545.769,123.722l4.921-5.557c5.477,4.922,10.557,7.54,18.019,7.54c6.666,0,11.429-3.413,11.429-8.492
			c0-4.524-2.539-6.906-13.413-9.684c-12.621-3.255-18.969-7.62-18.969-16.51c0-9.207,8.411-15.557,19.206-15.557
			c8.017,0,13.891,2.619,19.604,7.144l-4.603,5.953c-5.238-4.127-9.685-5.874-15.081-5.874c-6.111,0-10.795,3.017-10.795,7.779
			c0,4.603,2.937,7.144,14.207,9.921c12.145,2.937,18.098,7.778,18.098,16.351c0,10-8.572,16.192-19.763,16.192
			C559.738,132.929,552.357,129.674,545.769,123.722z"/>
	</g>
</g>
</svg>
