<?xml version="1.0" encoding="UTF-8" standalone="no"?><!DOCTYPE svg PUBLIC "-//W3C//DTD SVG 1.1//EN" "http://www.w3.org/Graphics/SVG/1.1/DTD/svg11.dtd"><svg width="100%" height="100%" viewBox="0 0 686 200" version="1.1" xmlns="http://www.w3.org/2000/svg" xmlns:xlink="http://www.w3.org/1999/xlink" xml:space="preserve" style="fill-rule:evenodd;clip-rule:evenodd;stroke-linejoin:round;stroke-miterlimit:1.41421;"><g><path d="M166.613,84.29l17.578,25.097l0,-67.972l-17.578,12.91l0,29.965ZM110.354,40.131l75.837,108.053l20.106,0l0,-108.053l-19.473,0l0,77.534l-54.422,-77.534l-22.048,0ZM120.287,160.025l19.537,-14.351l0,-24.664l-19.473,-27.916l0,53.937l-17.723,12.994l17.659,0ZM100.14,46.113l0,112.473l17.579,-12.912l0,-60.821l52.611,75.12l20.695,0l12.777,-9.316l-19.099,0l-77.182,-109.983l-7.381,5.439ZM192.097,162.5l-23.222,0l-26.42,-37.732l0,22.241l-21.095,15.491l-23.853,0l0,-117.717l9.884,-7.283l26.38,0l30.21,43.04l0,-27.548l21.095,-15.492l23.854,0l0,112.667l-16.833,12.333Z" style="fill:#fff;fill-rule:nonzero;"/><path d="M319.867,76.412l0,55.559l7.98,0l0,-23.37l29.038,0l0,-7.442l-29.038,0l0,-17.227l32.485,0l0,-7.52l-40.465,0Z" style="fill:#fff;fill-rule:nonzero;"/><path d="M382.223,76.412l0,55.559l38.166,0l0,-7.521l-30.187,0l0,-48.038l-7.979,0Z" style="fill:#fff;fill-rule:nonzero;"/><path d="M541.127,76.26l-14.034,42.757l-14.617,-42.606l-8.64,0l19.836,55.942l6.43,0l14.093,-41.479l14.023,41.479l6.505,0l19.836,-55.942l-8.411,0l-14.616,42.606l-14.032,-42.757l-6.373,0Z" style="fill:#fff;fill-rule:nonzero;"/><path d="M482.36,104.15c0,-12.147 -8.497,-21.357 -20.566,-21.357c-12.062,0 -20.563,9.21 -20.563,21.357c0,12.147 8.497,21.358 20.563,21.358c12.069,0 20.566,-9.211 20.566,-21.358ZM432.895,104.15c0,-15.719 12.068,-28.742 28.899,-28.742c16.833,0 28.901,13.023 28.901,28.742c0,15.72 -12.068,28.743 -28.901,28.743c-16.829,0 -28.899,-13.023 -28.899,-28.743Z" style="fill:#fff;fill-rule:nonzero;"/></g></svg>