<?xml version="1.0" encoding="utf-8"?>
<!-- Generator: Adobe Illustrator 15.0.2, SVG Export Plug-In . SVG Version: 6.00 Build 0)  -->
<!DOCTYPE svg PUBLIC "-//W3C//DTD SVG 1.1//EN" "http://www.w3.org/Graphics/SVG/1.1/DTD/svg11.dtd">
<svg version="1.1" id="Layer_1" xmlns="http://www.w3.org/2000/svg" xmlns:xlink="http://www.w3.org/1999/xlink" x="0px" y="0px"
	 width="686px" height="200px" viewBox="0 0 686 200" enable-background="new 0 0 686 200" xml:space="preserve">
<g>
	<path d="M185.359,38L164,52.634v27.544L134.062,38h-26.377L98,44.425V163h23.652L143,146.638V124.4l26.161,38.6h23.218L209,149.796
		V38H185.359z M132.692,41L187,117.298V41h19v108h-19.525L110.647,41H132.692z M140,145.303L120.579,160h-17.656L121,146.661V92.73
		l19,27.912V145.303z"/>
	<g>
		<path d="M327.184,75.933l32.305,41.037V75.933h7.856v55.561h-6.587L327.58,89.347v42.146h-7.857V75.933H327.184z"/>
		<path d="M438.068,75.933v7.223h-32.543v16.67h28.972v7.301h-28.972v17.145h32.939v7.223H397.51V75.933H438.068z"/>
		<path d="M463.151,103.714c0-15.717,12.065-28.734,28.892-28.734c16.827,0,28.893,13.018,28.893,28.734
			c0,15.715-12.065,28.732-28.893,28.732C475.217,132.446,463.151,119.429,463.151,103.714z M512.6,103.714
			c0-12.145-8.492-21.35-20.557-21.35c-12.063,0-20.557,9.205-20.557,21.35c0,12.143,8.493,21.352,20.557,21.352
			C504.107,125.065,512.6,115.856,512.6,103.714z"/>
		<path d="M545.623,123.239l4.92-5.557c5.477,4.922,10.557,7.541,18.018,7.541c6.668,0,11.43-3.414,11.43-8.494
			c0-4.523-2.539-6.904-13.414-9.682c-12.619-3.254-18.969-7.621-18.969-16.51c0-9.209,8.412-15.559,19.207-15.559
			c8.016,0,13.891,2.621,19.604,7.145l-4.602,5.953c-5.238-4.127-9.686-5.875-15.082-5.875c-6.111,0-10.793,3.018-10.793,7.779
			c0,4.605,2.936,7.145,14.207,9.922c12.145,2.938,18.098,7.777,18.098,16.352c0,10-8.572,16.191-19.764,16.191
			C559.592,132.446,552.211,129.192,545.623,123.239z"/>
	</g>
</g>
</svg>
