<?xml version="1.0" encoding="UTF-8" standalone="no"?><!DOCTYPE svg PUBLIC "-//W3C//DTD SVG 1.1//EN" "http://www.w3.org/Graphics/SVG/1.1/DTD/svg11.dtd"><svg width="100%" height="100%" viewBox="0 0 686 200" version="1.1" xmlns="http://www.w3.org/2000/svg" xmlns:xlink="http://www.w3.org/1999/xlink" xml:space="preserve" style="fill-rule:evenodd;clip-rule:evenodd;stroke-linejoin:round;stroke-miterlimit:1.41421;"><g><path d="M186.153,37.5l-20.643,15.161l0,31.716l20.643,29.413l0,-76.29Z" style="fill:#26224c;fill-rule:nonzero;"/><path d="M186.153,150.565l-79.356,-113.065l-9.193,6.774l0,118.226l20.643,-15.162l0,-58.548l51.617,73.71l22.58,0l16.292,-11.935l-22.583,0l0,0Z" style="fill:#26224c;fill-rule:nonzero;"/><path d="M118.247,88.79l0,58.548l-20.643,15.162l22.581,0l20.645,-15.162l0,-26.3l-22.583,-32.248l0,0Z" style="fill:#fff;fill-rule:nonzero;"/><path d="M186.153,113.79l0,-76.29l22.583,0l0,113.065l-22.583,0l-79.356,-113.065l25.808,0l53.548,76.29Z" style="fill:#fff;fill-rule:nonzero;"/><path d="M319.867,76.411l0,55.56l7.98,0l0,-23.37l29.038,0l0,-7.443l-29.038,0l0,-17.226l32.486,0l0,-7.521l-40.466,0Z" style="fill:#fff;fill-rule:nonzero;"/><path d="M382.223,76.411l0,55.56l38.166,0l0,-7.521l-30.187,0l0,-48.039l-7.979,0Z" style="fill:#fff;fill-rule:nonzero;"/><path d="M541.127,76.26l-14.034,42.756l-14.617,-42.605l-8.64,0l19.836,55.942l6.431,0l14.092,-41.479l14.023,41.479l6.506,0l19.835,-55.942l-8.411,0l-14.616,42.605l-14.032,-42.756l-6.373,0l0,0Z" style="fill:#fff;fill-rule:nonzero;"/><path d="M482.36,104.15c0,-12.147 -8.497,-21.357 -20.565,-21.357c-12.063,0 -20.564,9.21 -20.564,21.357c0,12.147 8.497,21.357 20.564,21.357c12.068,0 20.565,-9.21 20.565,-21.357ZM432.895,104.15c0,-15.719 12.069,-28.742 28.9,-28.742c16.832,0 28.9,13.023 28.9,28.742c0,15.72 -12.068,28.743 -28.9,28.743c-16.829,0 -28.9,-13.023 -28.9,-28.743Z" style="fill:#fff;fill-rule:nonzero;"/></g></svg>