<?xml version="1.0" encoding="UTF-8" standalone="no"?><!DOCTYPE svg PUBLIC "-//W3C//DTD SVG 1.1//EN" "http://www.w3.org/Graphics/SVG/1.1/DTD/svg11.dtd"><svg width="100%" height="100%" viewBox="0 0 200 200" version="1.1" xmlns="http://www.w3.org/2000/svg" xmlns:xlink="http://www.w3.org/1999/xlink" xml:space="preserve" style="fill-rule:evenodd;clip-rule:evenodd;stroke-linejoin:round;stroke-miterlimit:1.41421;"><path d="M132.387,38l-22.387,15.027l0,27.544l-28.911,-42.571l-26.377,0l-10.712,6.818l0,118.182l24.68,0l20.32,-15.969l0,-22.237l27.188,38.206l23.218,0l15.594,-12.811l0,-112.189l-22.613,0ZM79.72,41l53.28,76.691l0,-76.691l19,0l0,108l-18.498,0l-75.827,-108l22.045,0ZM86,145.696l-18.394,14.304l-17.656,0l17.05,-12.945l0,-53.931l19,27.912l0,24.66Z" style="fill:#000;fill-rule:nonzero;"/></svg>